<svg width="153" height="136" viewBox="0 0 153 136" fill="none" xmlns="http://www.w3.org/2000/svg">
<g clip-path="url(#clip0)">
<path d="M75.3886 136.03C113.711 136.03 144.777 105.579 144.777 68.0152C144.777 30.4514 113.711 0 75.3886 0C37.0663 0 6 30.4514 6 68.0152C6 105.579 37.0663 136.03 75.3886 136.03Z" fill="#F57E34"/>
<path d="M39.3337 29.1606C36.8455 28.5977 34.3026 28.3029 31.787 28.2225C26.7832 28.0617 21.7248 28.6513 17.1038 30.5007C12.4828 32.35 8.29929 35.4858 5.75639 39.6937C4.58063 41.6235 3.76034 43.7408 3.18613 45.9118C2.01038 50.2269 2.22913 54.7564 3.04942 59.1251C3.86971 63.4938 5.67435 67.7017 8.38132 71.2664C9.93988 73.3301 11.7719 75.1795 13.3031 77.27C14.8343 79.3338 16.1194 81.7191 16.3108 84.2653C16.4202 85.525 16.7483 87.1599 16.4475 88.366C16.0921 89.8133 15.5452 91.2606 15.1624 92.7079C14.3421 95.817 13.7132 98.9796 13.7953 102.196C13.7953 102.625 13.8226 103.08 14.0687 103.455C14.3421 103.858 14.8343 104.072 15.2991 104.26C20.9592 106.404 26.92 107.69 32.9354 108.575C34.3026 108.789 35.6971 108.95 37.0916 108.896C37.7205 108.869 38.3494 108.735 39.0056 108.709C39.6892 108.682 40.2908 108.816 40.9196 108.494C41.6579 108.146 42.0954 107.369 42.5055 106.672C43.4899 104.876 43.654 103.348 43.7907 101.365C43.9 99.9712 43.9821 98.6043 44.0914 97.2106C44.1461 96.2994 44.2282 95.3881 44.5563 94.5305C44.8844 93.6728 45.5133 92.8955 46.3883 92.6275C46.9625 92.4399 47.5914 92.4667 48.2203 92.5203C50.2436 92.6543 52.2944 92.7883 54.3178 92.9492C56.0404 93.0564 57.8997 93.1636 59.4036 92.3059C60.47 91.7163 61.2082 90.6978 61.7551 89.6257C63.5324 86.0611 63.0676 81.8532 62.6027 77.9133C62.4934 76.9484 62.384 75.9299 62.6574 74.9919C62.9035 74.161 63.4777 73.4374 64.298 73.1157C65.0089 72.8477 65.6652 72.4457 66.4034 72.1777C67.6065 71.722 68.8096 71.2664 69.712 70.3015C69.9854 70.0067 70.2315 69.6315 70.1221 69.2295C70.0674 69.0418 69.958 68.881 69.8487 68.747C68.0167 66.2812 65.2003 64.5391 63.6691 61.9125C62.0285 59.0447 61.9465 55.5873 61.3176 52.3442C60.8801 50.2001 60.0598 48.2167 59.2669 46.1798C58.9661 45.3757 58.8841 44.6521 58.3919 43.9284C57.7357 42.9368 57.0247 41.9451 56.3412 40.9534C55.2474 39.3721 54.1537 37.8176 52.8686 36.3971C49.3413 32.618 44.5016 30.3131 39.3337 29.1606Z" fill="#FFCFB4"/>
<path d="M3.1041 42.2667C4.85405 37.496 8.2446 34.7086 12.4281 32.0016C14.3421 30.7687 16.3655 29.4554 18.4983 28.6513C20.8771 27.7669 23.0372 27.5525 25.4981 27.1236C29.2715 26.4536 33.5643 26.3732 37.3924 27.3648C38.3767 27.5257 39.3337 27.7401 40.3181 28.0081C45.0484 29.2678 49.2319 31.8676 52.6225 35.325C55.6849 38.4608 58.7747 42.2667 60.5247 46.287C61.4543 48.4312 62.2473 50.6557 62.6574 52.9607C63.0402 55.1316 62.7668 57.6778 63.6144 59.688C64.4894 61.7249 66.1573 63.4402 67.5792 65.1287C68.6182 66.3616 70.915 68.2646 71.1611 69.9531C71.3799 71.4272 69.958 72.2044 68.7823 72.6869C67.8526 73.0889 66.8409 73.3569 65.8566 73.6786C64.4074 74.161 63.4777 74.2414 63.5324 75.9299C63.6144 79.441 64.2707 82.952 63.8879 86.4631C63.7238 88.0712 63.3957 90.1081 62.466 91.5018C61.6184 92.7883 59.9504 93.1367 58.5013 93.3512C56.3412 93.6996 53.935 93.4852 51.7475 93.3243C50.5444 93.2439 49.3413 93.0295 48.1382 93.0027C46.1969 92.9491 45.568 93.8872 45.2672 95.6025C44.8297 98.0415 44.9117 100.588 44.8024 103.027C44.7203 104.822 44.7203 106.94 43.4899 108.387C40.8649 111.496 34.2206 109.245 30.8847 108.735C26.0723 108.012 21.342 107.181 16.6663 105.76C15.3812 105.358 13.6312 105.037 12.8929 103.723C12.018 102.169 12.7289 100.052 13.1937 98.4703C13.9046 96.219 14.3695 93.8872 14.9163 91.609C15.5726 88.9288 15.9827 85.6858 15.1077 83.0324C13.5218 78.2349 9.11958 74.429 6.35793 70.2479C3.81502 66.4152 1.87365 61.9929 1.2721 57.4366C0.588524 52.0494 1.19008 47.4127 3.1041 42.2667ZM3.02206 53.5771C3.37753 58.4819 4.44391 62.797 6.87745 67.1121C9.0649 70.9984 12.1 74.295 14.6702 77.9133C17.2405 81.5047 17.9788 84.9622 17.4866 89.3041C17.2678 91.2338 16.6936 93.0831 16.2288 94.9861C16.01 95.9241 15.846 96.8622 15.5999 97.7735C15.2718 99.06 14.5609 100.427 14.6155 101.767C14.6976 103.268 15.6546 103.348 16.9124 103.75C17.7873 104.018 18.635 104.313 19.51 104.554C23.8302 105.787 28.7246 106.859 33.2362 107.235C35.533 107.422 37.8025 108.092 40.154 107.797C43.1618 107.422 42.6696 103.831 42.779 101.579C42.8883 99.596 42.861 97.5859 43.1618 95.6293C43.3532 94.316 43.6539 92.7347 44.775 91.8234C45.9781 90.805 47.7007 90.9926 49.1499 91.1266C51.2553 91.3142 53.3334 91.3678 55.4388 91.4482C57.9271 91.5554 60.4973 91.5822 61.3176 88.8484C61.8918 86.9723 61.9738 85.0158 61.8918 83.086C59.3762 84.2117 55.9857 83.6757 53.4154 83.1128C52.8412 82.9788 52.0209 82.8448 51.3647 82.55C51.2006 82.8716 51.0366 83.1932 50.7905 83.4613C50.1069 84.2385 49.0132 83.2468 49.4233 82.4428C49.9702 81.3439 50.189 80.1646 50.7358 79.0925C51.1186 78.2885 52.5405 78.6637 52.4858 79.5482C52.4037 80.5398 51.8569 80.9151 53.142 81.1563C54.7279 81.4779 56.2591 81.7191 57.8997 81.8263C59.1848 81.9067 60.3606 81.6387 61.6184 81.6387C61.7004 81.6387 61.7551 81.6387 61.8371 81.6119C61.7551 80.5934 61.6731 79.575 61.6184 78.5833C61.4817 76.1175 60.7707 73.4641 63.5871 72.3385C64.5714 71.9364 65.6652 71.6684 66.6769 71.32C67.1964 71.1324 67.9073 71.052 68.3448 70.7303C69.083 70.1943 68.8643 70.5159 68.7823 69.7387C68.7002 68.9882 67.3331 67.9429 66.8683 67.3801C66.13 66.5224 65.3917 65.638 64.6808 64.7535C63.4777 63.3062 62.2199 61.7517 61.509 59.9828C60.7707 58.1334 61.1535 55.8017 60.8254 53.8451C60.0051 48.726 57.5169 44.5717 54.4818 40.4442C51.2827 36.1291 47.0992 32.4036 41.9587 30.5007C39.4431 29.5626 36.7635 29.0534 34.0839 28.7853C32.9354 28.6781 31.6777 28.5173 30.4199 28.4369C24.9513 28.6245 19.4553 30.1254 14.9984 32.7788C11.4164 34.8962 7.72509 37.3084 5.81107 41.0874C3.86971 44.8129 2.72129 49.396 3.02206 53.5771Z" fill="black"/>
<path d="M54.6815 55.1579C55.8055 54.7393 57.3851 55.1579 57.8711 56.3541C58.2356 57.2213 58.7824 57.9389 58.7217 58.9257C58.6305 60.092 57.5369 61.3479 56.2611 61.1386C55.9877 61.1087 55.7447 61.0489 55.5017 60.9592C54.9245 60.8993 54.3474 60.6302 53.9221 60.1817C53.3753 59.5537 53.3145 58.836 53.0715 58.0885C52.8892 57.5203 53.0715 56.5933 53.436 56.1447C53.7094 55.6962 54.1347 55.3673 54.6815 55.1579Z" fill="black"/>
<path d="M112.067 29.1606C114.555 28.5977 117.098 28.3029 119.614 28.2225C124.617 28.0617 129.676 28.6513 134.297 30.5007C138.918 32.35 143.101 35.4858 145.644 39.6937C146.82 41.6235 147.64 43.7408 148.215 45.9118C149.39 50.2269 149.172 54.7564 148.351 59.1251C147.531 63.4938 145.726 67.7017 143.019 71.2664C141.461 73.3301 139.629 75.1795 138.098 77.27C136.566 79.3338 135.281 81.7191 135.09 84.2653C134.98 85.525 134.652 87.1599 134.953 88.366C135.309 89.8133 135.855 91.2606 136.238 92.7079C137.059 95.817 137.687 98.9796 137.605 102.196C137.605 102.625 137.578 103.08 137.332 103.455C137.059 103.858 136.566 104.072 136.102 104.26C130.441 106.404 124.481 107.69 118.465 108.575C117.098 108.789 115.704 108.95 114.309 108.896C113.68 108.869 113.051 108.735 112.395 108.709C111.711 108.682 111.11 108.816 110.481 108.494C109.743 108.146 109.305 107.369 108.895 106.672C107.911 104.876 107.747 103.348 107.61 101.365C107.501 99.9712 107.419 98.6043 107.309 97.2106C107.254 96.2994 107.172 95.3881 106.844 94.5305C106.516 93.6728 105.887 92.8955 105.012 92.6275C104.438 92.4399 103.809 92.4667 103.18 92.5203C101.157 92.6543 99.1063 92.7883 97.0829 92.9492C95.3602 93.0564 93.5009 93.1636 91.997 92.3059C90.9307 91.7163 90.1924 90.6978 89.6455 89.6257C87.8682 86.0611 88.3331 81.8532 88.7979 77.9133C88.9073 76.9484 89.0166 75.9299 88.7432 74.9919C88.4971 74.161 87.9229 73.4374 87.1026 73.1157C86.3917 72.8477 85.7355 72.4457 84.9972 72.1777C83.7941 71.722 82.591 71.2664 81.6887 70.3015C81.4153 70.0067 81.1692 69.6315 81.2785 69.2295C81.3332 69.0418 81.4426 68.881 81.552 68.747C83.384 66.2812 86.2003 64.5391 87.7315 61.9125C89.3721 59.0447 89.4541 55.5873 90.083 52.3442C90.5205 50.2001 91.3408 48.2167 92.1338 46.1798C92.4345 45.3757 92.5166 44.6521 93.0087 43.9284C93.665 42.9368 94.3759 41.9451 95.0595 40.9534C96.1532 39.3721 97.2469 37.8176 98.532 36.3971C102.059 32.618 106.899 30.3131 112.067 29.1606Z" fill="#FFCFB4"/>
<path d="M148.297 42.2667C146.547 37.496 143.156 34.7086 138.973 32.0016C137.059 30.7687 135.035 29.4554 132.902 28.6513C130.524 27.7669 128.363 27.5525 125.903 27.1236C122.129 26.4536 117.836 26.3732 114.008 27.3648C113.024 27.5257 112.067 27.7401 111.083 28.0081C106.352 29.2678 102.169 31.8676 98.7781 35.325C95.7157 38.4608 92.6259 42.2667 90.876 46.287C89.9463 48.4312 89.1534 50.6557 88.7432 52.9607C88.3604 55.1316 88.6338 57.6778 87.7862 59.688C86.9112 61.7249 85.2433 63.4402 83.8215 65.1287C82.7824 66.3616 80.4856 68.2646 80.2395 69.9531C80.0208 71.4272 81.4426 72.2044 82.6184 72.6869C83.548 73.0889 84.5597 73.3569 85.5441 73.6786C86.9933 74.161 87.9229 74.2414 87.8682 75.9299C87.7862 79.441 87.13 82.952 87.5128 86.4631C87.6768 88.0712 88.005 90.1081 88.9346 91.5018C89.7823 92.7883 91.4502 93.1367 92.8994 93.3512C95.0595 93.6996 97.4657 93.4852 99.6531 93.3243C100.856 93.2439 102.059 93.0295 103.262 93.0027C105.204 92.9491 105.833 93.8872 106.133 95.6025C106.571 98.0415 106.489 100.588 106.598 103.027C106.68 104.822 106.68 106.94 107.911 108.387C110.536 111.496 117.18 109.245 120.516 108.735C125.328 108.012 130.059 107.181 134.734 105.76C136.019 105.358 137.769 105.037 138.508 103.723C139.383 102.169 138.672 100.052 138.207 98.4703C137.496 96.219 137.031 93.8872 136.484 91.609C135.828 88.9288 135.418 85.6858 136.293 83.0324C137.879 78.2349 142.281 74.429 145.043 70.2479C147.586 66.4152 149.527 61.9929 150.129 57.4366C150.812 52.0494 150.211 47.4127 148.297 42.2667ZM148.379 53.5771C148.023 58.4819 146.957 62.797 144.523 67.1121C142.336 70.9984 139.301 74.295 136.73 77.9133C134.16 81.5047 133.422 84.9622 133.914 89.3041C134.133 91.2338 134.707 93.0831 135.172 94.9861C135.391 95.9241 135.555 96.8622 135.801 97.7735C136.129 99.06 136.84 100.427 136.785 101.767C136.703 103.268 135.746 103.348 134.488 103.75C133.613 104.018 132.766 104.313 131.891 104.554C127.57 105.787 122.676 106.859 118.164 107.235C115.868 107.422 113.598 108.092 111.247 107.797C108.239 107.422 108.731 103.831 108.622 101.579C108.512 99.596 108.54 97.5859 108.239 95.6293C108.047 94.316 107.747 92.7347 106.626 91.8234C105.423 90.805 103.7 90.9926 102.251 91.1266C100.145 91.3142 98.0672 91.3678 95.9618 91.4482C93.4736 91.5554 90.9033 91.5822 90.083 88.8484C89.5088 86.9723 89.4268 85.0158 89.5088 83.086C92.0244 84.2117 95.4149 83.6757 97.9852 83.1128C98.5594 82.9788 99.3797 82.8448 100.036 82.55C100.2 82.8716 100.364 83.1932 100.61 83.4613C101.294 84.2385 102.387 83.2468 101.977 82.4428C101.43 81.3439 101.212 80.1646 100.665 79.0925C100.282 78.2885 98.8602 78.6637 98.9149 79.5482C98.9969 80.5398 99.5438 80.9151 98.2586 81.1563C96.6727 81.4779 95.1415 81.7191 93.5009 81.8263C92.2158 81.9067 91.04 81.6387 89.7823 81.6387C89.7002 81.6387 89.6455 81.6387 89.5635 81.6119C89.6455 80.5934 89.7276 79.575 89.7823 78.5833C89.919 76.1175 90.6299 73.4641 87.8136 72.3385C86.8292 71.9364 85.7355 71.6684 84.7238 71.32C84.2043 71.1324 83.4933 71.052 83.0559 70.7303C82.3176 70.1943 82.5363 70.5159 82.6184 69.7387C82.7004 68.9882 84.0675 67.9429 84.5324 67.3801C85.2706 66.5224 86.0089 65.638 86.7198 64.7535C87.9229 63.3062 89.1807 61.7517 89.8916 59.9828C90.6299 58.1334 90.2471 55.8017 90.5752 53.8451C91.3955 48.726 93.8837 44.5717 96.9188 40.4442C100.118 36.1291 104.301 32.4036 109.442 30.5007C111.958 29.5626 114.637 29.0534 117.317 28.7853C118.465 28.6781 119.723 28.5173 120.981 28.4369C126.449 28.6245 131.945 30.1254 136.402 32.7788C139.984 34.8962 143.676 37.3084 145.59 41.0874C147.531 44.8129 148.679 49.396 148.379 53.5771Z" fill="black"/>
<path d="M97.0448 55.1579C95.9209 54.7393 94.3413 55.1579 93.8552 56.3541C93.4907 57.2213 92.9439 57.9389 93.0047 58.9257C93.0958 60.092 94.1894 61.3479 95.4652 61.1386C95.7386 61.1087 95.9816 61.0489 96.2246 60.9592C96.8018 60.8993 97.379 60.6302 97.8042 60.1817C98.351 59.5537 98.4118 58.836 98.6548 58.0885C98.8371 57.5203 98.6548 56.5933 98.2903 56.1447C98.0169 55.6962 97.5916 55.3673 97.0448 55.1579Z" fill="black"/>
<path d="M119.176 49.7964C119.029 49.817 118.882 49.8376 118.735 49.8582C117.664 50.0228 116.594 50.1668 115.523 50.1668C114.117 50.1668 112.731 49.8787 111.324 49.9199C110.758 49.9405 110.317 50.1051 109.792 50.2286C109.204 50.352 108.511 50.2286 107.903 50.1668C107.546 50.1463 107.189 50.1051 106.874 49.9611C106.202 49.6318 105.488 48.603 105.614 47.8416C105.719 47.2243 106.349 46.8745 106.958 46.6687C107.525 46.4835 108.176 46.2777 108.742 46.1542C108.994 46.0925 110.884 46.3806 110.905 46.2983C111.157 45.434 111.702 44.6727 112.227 43.9525C112.626 43.3969 113.025 42.8413 113.592 42.4709C114.18 42.0799 114.893 41.9153 115.586 41.7713C116.447 41.5861 117.37 41.4009 118.21 41.689C118.777 41.8947 119.26 42.3063 119.764 42.6355C119.575 42.512 120.372 39.2402 120.456 38.8698C120.645 38.0468 121.737 36.8738 122.409 36.38C123.29 35.7421 125.18 35.7215 126.229 35.8038C127.3 35.8861 128.392 36.2359 129.189 36.9562C130.575 38.2114 130.785 40.228 130.995 42.0593C131.037 42.4503 131.079 42.8207 131.142 43.2117C131.163 43.3146 131.163 43.4175 131.247 43.4998C131.331 43.5821 131.478 43.6026 131.604 43.6026C132.128 43.6026 132.632 43.5821 133.157 43.5203C133.661 43.4586 134.186 43.3557 134.69 43.4174C135.592 43.5203 136.369 44.1788 136.726 45.0019C137.083 45.825 137.02 46.7716 136.663 47.5947C136.579 47.821 136.453 48.0268 136.264 48.1708C136.075 48.3149 135.844 48.3766 135.613 48.4178C133.388 48.9322 131.058 49.5289 128.749 49.3232C127.09 49.1791 125.432 49.138 123.773 49.138C122.262 49.1791 120.687 49.5495 119.176 49.7964Z" fill="#F4F4F4"/>
<path d="M119.806 58.295C119.848 58.1921 119.89 58.1098 119.869 58.0069C119.827 57.7805 119.554 57.6982 119.344 57.6571C117.853 57.4101 116.384 57.1632 114.893 56.9163C114.62 56.8751 114.327 56.7928 114.222 56.5459C114.159 56.4019 114.201 56.2372 114.243 56.0932C114.369 55.5582 114.473 54.8174 114.767 54.3441C115.019 53.9531 115.46 53.6033 115.754 53.2124C116.174 52.6362 116.531 52.0189 116.804 51.3604C116.972 50.9694 117.014 50.3727 117.308 50.064C117.685 49.6525 118.42 49.7554 118.945 49.7142C119.764 49.6731 120.582 49.6319 121.401 49.5907C122.703 49.529 124.025 49.4467 125.327 49.6113C125.432 49.6319 125.537 49.6319 125.6 49.7142C125.705 49.8171 125.684 49.9817 125.642 50.1052C125.432 50.8665 124.991 51.5456 124.655 52.2452C124.298 52.9654 124.025 53.7268 123.836 54.5087C124.823 54.6322 126.67 54.3647 126.754 55.6816C126.775 56.0726 126.67 56.443 126.544 56.8134C126.167 57.8834 125.537 58.8094 125.012 59.8177C124.823 60.2087 124.466 60.4762 124.193 60.8054C123.836 61.1964 123.018 62.1841 123.668 62.678C123.941 62.8837 124.592 62.7808 124.928 62.8426C125.327 62.9043 125.831 62.8837 126.209 62.9866C127.006 63.213 126.859 64.0772 126.649 64.674C126.355 65.4559 126.209 66.279 125.747 66.9992C125.327 67.6165 124.802 68.1721 124.382 68.7894C123.92 69.4479 123.563 70.1887 123.144 70.8678C122.808 71.4028 122.43 71.8966 122.052 72.3905C120.372 74.5511 118.525 76.5677 116.51 78.4402C116.321 77.4731 116.846 76.5059 117.329 75.6417C118.483 73.5428 119.449 71.3616 120.247 69.1187C120.561 68.2133 120.855 67.2667 120.813 66.3202C120.813 66.135 120.771 65.9292 120.624 65.8057C120.519 65.7234 120.393 65.7028 120.268 65.6822C119.596 65.5794 118.987 65.3942 118.336 65.2707C117.895 65.1884 117.308 65.1884 117.056 64.7563C116.678 64.0978 117.454 63.1307 117.769 62.5751C118.441 61.1758 119.155 59.756 119.806 58.295Z" fill="#6CA813"/>
<path d="M135.592 43.294C134.984 43.0471 134.291 42.903 133.619 42.8619C133.052 42.8207 132.317 43.0882 131.73 43.1294C131.793 42.2446 131.94 41.442 131.688 40.4955C131.394 39.3843 130.932 38.3143 130.218 37.4089C129.001 35.8861 127.405 35.0631 125.432 35.0836C123.731 35.1042 122.01 35.8861 121.002 37.2237C120.477 37.9233 119.995 38.7052 119.785 39.5489C119.617 40.2486 119.68 41.0511 119.617 41.7919C117.979 40.7836 115.523 40.8453 113.886 41.6684C111.975 42.615 110.863 43.8907 111.073 45.825C109.204 45.6192 107 45.5164 105.635 47.0185C104.313 48.5001 105.174 50.1257 107.021 50.4549C110.065 50.9899 113.508 50.5578 116.657 50.352C116.279 50.9899 115.985 51.7307 115.628 52.2863C114.914 53.4387 114.117 54.8585 113.76 56.1549C113.109 58.4595 117.79 57.7805 118.966 58.048C119.743 58.2126 119.617 58.3155 119.197 59.0357C118.84 59.653 118.504 60.3115 118.126 60.9288C117.58 61.8137 116.006 63.4598 116.3 64.6533C116.468 65.3735 117.098 65.497 117.769 65.5999C118.378 65.7028 119.953 65.5176 120.351 65.9497C120.855 66.4847 120.205 67.4313 119.974 68.028C119.323 69.7977 118.609 71.5468 117.811 73.2547C117.161 74.6334 116.174 76.0326 115.817 77.5348C115.712 78.0286 115.586 78.6665 116.153 78.934C116.951 79.2838 117.853 78.1521 118.273 77.6582C120.393 75.1889 122.472 72.6991 124.277 70.0034C125.159 68.6659 126.041 67.3284 126.817 65.9291C127.216 65.1883 128.203 63.9743 127.615 63.11C127.384 62.7602 126.922 62.5956 126.544 62.4721C126.271 62.3692 124.025 62.2458 123.899 62.0194C123.815 61.8754 125.012 60.3732 125.159 60.1263C125.684 59.3238 126.25 58.5007 126.733 57.657C127.237 56.8133 127.993 55.4552 127.216 54.5498C126.901 54.1794 126.376 54.0354 125.894 53.9737C125.516 53.9325 124.844 54.056 124.34 54.056C124.97 52.8831 125.663 50.3726 127.048 49.8582C127.72 49.6113 128.98 49.817 129.714 49.7965C130.743 49.7553 131.751 49.6936 132.779 49.6524C134.165 49.5907 135.928 49.7141 136.957 48.6235C137.755 47.8005 137.944 46.6687 137.65 45.5987C137.356 44.5081 136.642 43.7261 135.592 43.294ZM123.144 54.1383C123.018 54.4058 123.06 54.6939 123.332 54.8585C124.004 55.27 124.76 54.7762 125.432 55.0231C126.985 55.5581 126.125 56.6693 125.537 57.5953C125.222 58.1097 124.907 58.6242 124.592 59.1386C124.046 60.0028 121.632 62.3692 123.458 63.0689C124.655 63.5216 126.901 62.7191 126.292 64.6739C125.936 65.8057 125.075 66.9374 124.445 67.9251C122.766 70.5179 121.023 73.0077 118.903 75.2918C118.567 75.6417 116.636 77.7611 116.825 77.9669C116.489 77.5965 118.504 74.3041 118.735 73.8308C119.365 72.5139 119.89 71.1558 120.435 69.8183C120.876 68.7688 121.506 67.5547 121.653 66.423C121.968 64.036 118.42 65.6205 117.706 64.3447C117.245 63.5216 118.903 61.7108 119.365 60.8877C119.764 60.188 120.813 58.974 120.813 58.1303C120.813 56.4635 116.195 57.1632 115.376 56.8545C114.641 56.587 114.704 56.5458 114.998 55.8256C115.292 55.126 115.607 54.4675 115.943 53.7885C116.216 53.1917 116.594 52.6567 116.93 52.1011C117.203 51.6484 117.412 50.9282 117.706 50.3932C120.184 50.2697 122.64 50.1669 125.117 50.0845C125.096 50.1669 125.117 50.2492 125.138 50.3315C124.676 51.6073 123.71 52.8831 123.144 54.1383ZM135.949 48.068C134.711 48.9528 132.401 48.747 130.869 48.8705C127.615 49.138 124.277 48.7676 121.002 48.8087C117.979 48.8499 114.977 49.0145 111.954 49.282C110.695 49.4055 106.769 50.3932 106.37 48.4384C106.118 47.1626 107.987 46.8745 108.805 46.751C109.834 46.5864 110.674 46.8333 111.66 46.9362C112.017 46.9774 112.248 46.5658 112.164 46.2777C111.241 42.6767 117.119 40.7218 119.533 43.0471C119.827 43.3352 120.267 43.1705 120.393 42.8207C120.771 41.7713 120.435 40.4955 120.855 39.4049C121.464 37.7793 122.892 36.5035 124.634 36.1742C126.733 35.7833 128.623 36.8327 129.735 38.5406C130.827 40.2074 130.68 41.7095 130.659 43.5821C130.659 43.7879 130.827 44.0348 131.037 44.0554C132.17 44.22 133.241 43.6644 134.438 43.9525C136.285 44.4258 137.881 46.6893 135.949 48.068Z" fill="black"/>
<path d="M30.6047 49.7964C30.7516 49.817 30.8986 49.8376 31.0455 49.8582C32.1162 50.0228 33.1868 50.1668 34.2574 50.1668C35.664 50.1668 37.0495 49.8787 38.456 49.9199C39.0228 49.9405 39.4637 50.1051 39.9885 50.2286C40.5763 50.352 41.2691 50.2286 41.8779 50.1668C42.2348 50.1463 42.5916 50.1051 42.9065 49.9611C43.5783 49.6318 44.2921 48.603 44.1661 47.8416C44.0611 47.2243 43.4313 46.8745 42.8226 46.6687C42.2557 46.4835 41.605 46.2777 41.0382 46.1542C40.7862 46.0925 38.8969 46.3806 38.8759 46.2983C38.624 45.434 38.0782 44.6727 37.5533 43.9525C37.1545 43.3969 36.7556 42.8413 36.1888 42.4709C35.601 42.0799 34.8872 41.9153 34.1945 41.7713C33.3338 41.5861 32.4101 41.4009 31.5704 41.689C31.0036 41.8947 30.5207 42.3063 30.0169 42.6355C30.2058 42.512 29.4081 39.2402 29.3241 38.8698C29.1352 38.0468 28.0436 36.8738 27.3718 36.38C26.4901 35.7421 24.6007 35.7215 23.5511 35.8038C22.4804 35.8861 21.3888 36.2359 20.5911 36.9562C19.2055 38.2114 18.9956 40.228 18.7857 42.0593C18.7437 42.4503 18.7017 42.8207 18.6387 43.2117C18.6177 43.3146 18.6177 43.4175 18.5338 43.4998C18.4498 43.5821 18.3029 43.6026 18.1769 43.6026C17.6521 43.6026 17.1482 43.5821 16.6234 43.5203C16.1196 43.4586 15.5948 43.3557 15.0909 43.4174C14.1882 43.5203 13.4115 44.1788 13.0546 45.0019C12.6977 45.825 12.7607 46.7716 13.1176 47.5947C13.2016 47.821 13.3275 48.0268 13.5165 48.1708C13.7054 48.3149 13.9363 48.3766 14.1672 48.4178C16.3925 48.9322 18.7227 49.5289 21.0319 49.3232C22.6904 49.1791 24.3488 49.138 26.0072 49.138C27.5187 49.1791 29.0932 49.5495 30.6047 49.7964Z" fill="#F4F4F4"/>
<path d="M29.9748 58.295C29.9328 58.1921 29.8909 58.1098 29.9119 58.0069C29.9538 57.7805 30.2268 57.6982 30.4367 57.6571C31.9272 57.4101 33.3967 57.1632 34.8872 56.9163C35.1601 56.8751 35.454 56.7928 35.5589 56.5459C35.6219 56.4019 35.5799 56.2372 35.538 56.0932C35.412 55.5582 35.307 54.8174 35.0131 54.3441C34.7612 53.9531 34.3204 53.6033 34.0265 53.2124C33.6066 52.6362 33.2497 52.0189 32.9768 51.3604C32.8089 50.9694 32.7669 50.3727 32.473 50.064C32.0951 49.6525 31.3604 49.7554 30.8355 49.7142C30.0168 49.6731 29.1981 49.6319 28.3794 49.5907C27.0778 49.529 25.7553 49.4467 24.4537 49.6113C24.3487 49.6319 24.2438 49.6319 24.1808 49.7142C24.0758 49.8171 24.0968 49.9817 24.1388 50.1052C24.3487 50.8665 24.7896 51.5456 25.1255 52.2452C25.4824 52.9654 25.7553 53.7268 25.9442 54.5087C24.9575 54.6322 23.1102 54.3647 23.0262 55.6816C23.0052 56.0726 23.1102 56.443 23.2361 56.8134C23.614 57.8834 24.2438 58.8094 24.7686 59.8177C24.9575 60.2087 25.3144 60.4762 25.5873 60.8054C25.9442 61.1964 26.7629 62.1841 26.1121 62.678C25.8392 62.8837 25.1885 62.7808 24.8526 62.8426C24.4537 62.9043 23.9499 62.8837 23.572 62.9866C22.7743 63.213 22.9212 64.0772 23.1311 64.674C23.425 65.4559 23.572 66.279 24.0338 66.9992C24.4537 67.6165 24.9785 68.1721 25.3984 68.7894C25.8602 69.4479 26.2171 70.1887 26.637 70.8678C26.9728 71.4028 27.3507 71.8966 27.7286 72.3905C29.408 74.5511 31.2554 76.5677 33.2707 78.4402C33.4597 77.4731 32.9348 76.5059 32.452 75.6417C31.2974 73.5428 30.3317 71.3616 29.534 69.1187C29.2191 68.2133 28.9252 67.2667 28.9672 66.3202C28.9672 66.135 29.0092 65.9292 29.1561 65.8057C29.2611 65.7234 29.387 65.7028 29.513 65.6822C30.1848 65.5794 30.7936 65.3942 31.4443 65.2707C31.8852 65.1884 32.473 65.1884 32.7249 64.7563C33.1028 64.0978 32.326 63.1307 32.0111 62.5751C31.3394 61.1758 30.6256 59.756 29.9748 58.295Z" fill="#6CA813"/>
<path d="M14.1882 43.294C14.797 43.0471 15.4898 42.903 16.1616 42.8619C16.7284 42.8207 17.4631 43.0882 18.0509 43.1294C17.9879 42.2446 17.841 41.442 18.0929 40.4955C18.3868 39.3843 18.8486 38.3143 19.5624 37.4089C20.78 35.8861 22.3754 35.0631 24.3488 35.0836C26.0492 35.1042 27.7706 35.8861 28.7783 37.2237C29.3031 37.9233 29.7859 38.7052 29.9959 39.5489C30.1638 40.2486 30.1008 41.0511 30.1638 41.7919C31.8012 40.7836 34.2574 40.8453 35.8949 41.6684C37.8052 42.615 38.9178 43.8907 38.7079 45.825C40.5763 45.6192 42.7805 45.5164 44.1451 47.0185C45.4676 48.5001 44.6069 50.1257 42.7595 50.4549C39.7156 50.9899 36.2727 50.5578 33.1238 50.352C33.5017 50.9899 33.7956 51.7307 34.1524 52.2863C34.8662 53.4387 35.6639 54.8585 36.0208 56.1549C36.6716 58.4595 31.9902 57.7805 30.8146 58.048C30.0378 58.2126 30.1638 58.3155 30.5837 59.0357C30.9405 59.653 31.2764 60.3115 31.6543 60.9288C32.2001 61.8137 33.7746 63.4598 33.4807 64.6533C33.3127 65.3735 32.683 65.497 32.0112 65.5999C31.4024 65.7028 29.8279 65.5176 29.4291 65.9497C28.9252 66.4847 29.576 67.4313 29.8069 68.028C30.4577 69.7977 31.1715 71.5468 31.9692 73.2547C32.62 74.6334 33.6066 76.0326 33.9635 77.5348C34.0685 78.0286 34.1944 78.6665 33.6276 78.934C32.8299 79.2838 31.9272 78.1521 31.5074 77.6582C29.3871 75.1889 27.3088 72.6991 25.5034 70.0034C24.6217 68.6659 23.74 67.3284 22.9632 65.9291C22.5644 65.1883 21.5777 63.9743 22.1655 63.11C22.3964 62.7602 22.8583 62.5956 23.2362 62.4721C23.5091 62.3692 25.7553 62.2458 25.8813 62.0194C25.9652 61.8754 24.7686 60.3732 24.6217 60.1263C24.0969 59.3238 23.5301 58.5007 23.0472 57.657C22.5434 56.8133 21.7876 55.4552 22.5644 54.5498C22.8793 54.1794 23.4041 54.0354 23.8869 53.9737C24.2648 53.9325 24.9366 54.056 25.4404 54.056C24.8106 52.8831 24.1179 50.3726 22.7323 49.8582C22.0605 49.6113 20.801 49.817 20.0662 49.7965C19.0376 49.7553 18.0299 49.6936 17.0013 49.6524C15.6157 49.5907 13.8523 49.7141 12.8237 48.6235C12.026 47.8005 11.837 46.6687 12.1309 45.5987C12.4248 44.5081 13.1386 43.7261 14.1882 43.294ZM26.637 54.1383C26.763 54.4058 26.721 54.6939 26.4481 54.8585C25.7763 55.27 25.0205 54.7762 24.3488 55.0231C22.7953 55.5581 23.656 56.6693 24.2438 57.5953C24.5587 58.1097 24.8736 58.6242 25.1885 59.1386C25.7343 60.0028 28.1485 62.3692 26.3221 63.0689C25.1255 63.5216 22.8793 62.7191 23.4881 64.6739C23.8449 65.8057 24.7057 66.9374 25.3354 67.9251C27.0149 70.5179 28.7573 73.0077 30.8776 75.2918C31.2135 75.6417 33.1448 77.7611 32.9559 77.9669C33.2917 77.5965 31.2764 74.3041 31.0455 73.8308C30.4157 72.5139 29.8909 71.1558 29.3451 69.8183C28.9042 68.7688 28.2744 67.5547 28.1275 66.423C27.8126 64.036 31.3604 65.6205 32.0742 64.3447C32.536 63.5216 30.8776 61.7108 30.4157 60.8877C30.0169 60.188 28.9672 58.974 28.9672 58.1303C28.9672 56.4635 33.5856 57.1632 34.4044 56.8545C35.1391 56.587 35.0761 56.5458 34.7822 55.8256C34.4883 55.126 34.1734 54.4675 33.8376 53.7885C33.5646 53.1917 33.1868 52.6567 32.8509 52.1011C32.578 51.6484 32.3681 50.9282 32.0742 50.3932C29.597 50.2697 27.1408 50.1669 24.6637 50.0845C24.6847 50.1669 24.6637 50.2492 24.6427 50.3315C25.1045 51.6073 26.0702 52.8831 26.637 54.1383ZM13.8313 48.068C15.0699 48.9528 17.3791 48.747 18.9116 48.8705C22.1655 49.138 25.5034 48.7676 28.7783 48.8087C31.8013 48.8499 34.8032 49.0145 37.8262 49.282C39.0858 49.4055 43.0114 50.3932 43.4103 48.4384C43.6622 47.1626 41.7939 46.8745 40.9751 46.751C39.9465 46.5864 39.1068 46.8333 38.1201 46.9362C37.7632 46.9774 37.5323 46.5658 37.6163 46.2777C38.54 42.6767 32.662 40.7218 30.2478 43.0471C29.9539 43.3352 29.513 43.1705 29.3871 42.8207C29.0092 41.7713 29.3451 40.4955 28.9252 39.4049C28.3164 37.7793 26.8889 36.5035 25.1465 36.1742C23.0472 35.7833 21.1579 36.8327 20.0452 38.5406C18.9536 40.2074 19.1006 41.7095 19.1215 43.5821C19.1215 43.7879 18.9536 44.0348 18.7437 44.0554C17.6101 44.22 16.5394 43.6644 15.3428 43.9525C13.4955 44.4258 11.9 46.6893 13.8313 48.068Z" fill="black"/>
<path d="M65.5405 79.7837C67.6975 82 68.6975 83 65.5405 86" stroke="black" stroke-linecap="round" stroke-linejoin="round"/>
<path d="M67.7131 78.5C70.6975 81 72.1975 84 67.7131 87.9701M70.1975 77C74.1975 80 76.1975 84.5 70.6975 90" stroke="black" stroke-linecap="round"/>
<path d="M85.9456 79.7837C83.7886 82 82.7886 83 85.9456 86" stroke="black" stroke-linecap="round" stroke-linejoin="round"/>
<path d="M83.773 78.5C80.7886 81 79.2886 84 83.773 87.9701M81.2886 77C77.2886 80 75.2886 84.5 80.7886 90" stroke="black" stroke-linecap="round"/>
</g>
<defs>
<clipPath id="clip0">
<rect width="152.643" height="136" fill="white"/>
</clipPath>
</defs>
</svg>
