<svg width="33" height="34" viewBox="0 0 33 34" fill="none" xmlns="http://www.w3.org/2000/svg">
<path d="M28.9969 12.7469C33.8649 16.924 33.1012 26.6993 32.699 32.2709C32.6853 32.4767 32.5967 32.6361 32.4808 32.7557C32.4467 32.9615 32.3172 33.1608 32.0921 33.2206C30.0672 33.7586 27.4491 33.3335 25.4037 32.9749C25.1923 32.9417 25.1105 32.7823 25.1173 32.6229C25.1036 32.5964 25.1036 32.5631 25.0969 32.5366C24.9674 32.4171 24.8856 32.2312 24.9128 31.9854C25.1242 29.7607 25.24 27.5361 25.1854 25.2981C25.1582 24.1891 25.1105 23.0535 24.9809 21.9511C24.6946 19.4608 22.1447 16.7713 19.7515 18.7968C16.3835 21.639 17.9039 29.0435 18.163 32.842C18.1834 33.1011 18.0062 33.2404 17.8086 33.2736C17.7471 33.4065 17.6381 33.526 17.4541 33.5924C16.3564 33.9775 15.0473 33.9576 13.8882 33.9775C12.8519 34.004 11.7133 34.0903 10.786 33.5857C10.7588 33.5724 10.7451 33.5459 10.7247 33.5193C10.5133 33.4263 10.3497 33.2404 10.336 32.9549C10.1452 26.0485 9.44977 18.458 10.8883 11.6645C10.9156 11.5383 10.9838 11.4653 11.0725 11.4254C11.1202 11.3922 11.168 11.3591 11.2293 11.3391C12.852 10.8941 15.0337 11.4254 16.6905 11.6046C17.2155 11.6578 17.7337 11.671 18.0132 12.1625C18.1156 12.3483 18.1632 12.5874 18.1769 12.8398C20.7745 10.2898 26.3924 10.5155 28.9969 12.7469Z" fill="#0071BC"/>
<path d="M7.83808 12.1403C7.92136 12.2641 7.97265 12.4074 7.95979 12.5637C7.31291 19.3981 7.20405 26.2389 7.62678 33.0927C7.65235 33.5358 7.25533 33.8485 6.8646 33.8745C4.93023 33.9852 3.00229 34.0243 1.06149 33.9852C0.632333 33.9787 0.312035 33.6334 0.299318 33.21C0.0687363 26.3822 -0.514146 18.714 1.04878 12.0165C1.09364 11.8276 1.20893 11.7298 1.34336 11.6907C1.34979 11.6712 1.36251 11.6516 1.37536 11.6321C1.34336 11.4953 1.40094 11.3454 1.52266 11.2738C2.20797 10.8242 3.18801 11.0653 3.98219 11.0589C5.12238 11.0458 6.26886 11.0133 7.40263 11.0784C8.01094 11.1174 8.15195 11.795 7.83808 12.1403Z" fill="#0071BC"/>
<path d="M4.9895 8.99211C4.75075 9.01222 4.52495 8.99211 4.31197 8.95202C1.36985 9.45313 0.234244 4.81008 1.53103 2.47187C2.27951 1.12232 3.77 0.00670476 5.31848 0C6.91215 0 8.2026 1.44298 8.71233 2.89937C9.71899 5.75866 7.98976 8.78499 4.9895 8.99211Z" fill="#0071BC"/>
</svg>
