<svg width="148" height="136" viewBox="0 0 148 136" fill="none" xmlns="http://www.w3.org/2000/svg">
<path d="M73.1275 136C111.304 136 142.252 105.555 142.252 68C142.252 30.4446 111.304 0 73.1275 0C34.9513 0 4.00342 30.4446 4.00342 68C4.00342 105.555 34.9513 136 73.1275 136Z" fill="#F57E34"/>
<path d="M115.585 53.774C114.843 54.7163 113.947 55.4459 113.515 56.601C113.206 57.5129 112.958 58.3944 112.928 59.3368C112.866 60.3095 113.02 61.1607 113.206 62.103C113.298 62.6198 113.576 63.5925 113.36 64.0788C113.144 64.5348 112.402 64.6564 112.031 64.8692C111.228 65.3556 110.548 66.0547 109.807 66.6019C109.528 66.8147 108.571 67.453 108.787 67.8482C108.91 68.1218 109.961 68.2434 110.208 68.3649C111.043 68.7297 111.815 68.9729 112.68 69.2769C113.175 69.4289 113.669 69.6113 113.916 70.0976C114.225 70.6752 114.318 71.4351 114.38 72.0735C114.503 73.2286 114.627 74.3837 114.874 75.478C115.091 76.3596 115.43 77.0891 115.925 77.8187C116.327 78.4266 116.975 79.2778 117.624 79.6425C119.108 80.5241 120.993 79.3386 122.568 79.6122C123.681 79.7945 124.453 81.0105 124.855 81.9528C125.442 83.3207 126.369 85.2358 128.1 85.2054C128.749 85.2054 129.367 84.9014 130.015 84.8102C130.819 84.6886 131.499 84.4758 132.271 84.263C132.982 84.0806 133.754 84.111 134.465 83.8982C135.299 83.6551 136.103 83.2903 136.875 82.8951C137.864 82.4088 138.977 82.0744 139.904 81.4968C140.831 80.9497 140.831 80.0985 140.8 79.1258C140.769 78.1227 140.12 77.4539 139.904 76.5116C139.718 75.6908 139.316 74.8093 139.409 73.9582C139.502 73.3502 139.842 72.7726 139.718 72.1343C139.564 71.3439 138.76 70.9792 138.451 70.28C138.049 69.3985 138.513 68.2434 138.729 67.3618C138.977 66.3283 139.347 64.7476 138.76 63.7141C138.266 62.8629 137.462 62.559 136.443 62.6502C135.886 62.7109 135.608 63.2277 135.33 63.6229C134.774 64.322 134.558 65.1732 134.187 65.9635C133.693 67.0882 134.002 68.4257 132.611 68.8513C132.055 69.0337 131.313 68.7297 130.726 68.7297C130.077 68.7297 129.521 68.5777 128.934 68.4257C128.718 68.3649 128.347 68.3953 128.223 68.1826C128.161 68.0914 128.347 67.605 128.347 67.5138C128.409 67.1186 128.409 66.7539 128.47 66.3587C128.563 65.6291 128.501 64.8996 128.532 64.17C128.563 63.5317 128.718 63.2885 128.223 62.8325C127.296 62.0118 126.122 62.0118 125.071 61.4646C124.484 61.1607 123.743 60.6439 123.712 59.9751C123.681 59.0936 123.804 58.3337 124.206 57.5433C124.392 57.1785 124.948 56.601 124.917 56.145C124.886 55.7802 124.515 55.6282 124.144 55.4459C123.65 55.2027 123.001 55.2939 122.445 55.2331C121.394 55.1723 120.375 55.3547 119.324 55.2635C118.335 55.1723 117.624 55.0507 116.821 54.4731C116.512 54.3211 115.338 53.3484 115.585 53.774Z" fill="#FFCFB4"/>
<path d="M128.81 43.6822C127.389 43.9862 126.06 44.6549 124.7 45.1717C123.124 45.7796 121.857 46.7828 120.405 47.6339C119.509 48.1811 118.582 48.9106 117.871 49.6706C117.284 50.2785 117.13 51.1296 116.821 51.8896C116.295 53.1663 116.141 54.7166 117.686 55.2638C119.169 55.7501 120.93 55.7805 122.445 55.7197C123.001 55.6893 123.526 55.5677 124.051 55.3853C124.422 55.2638 125.195 54.899 125.565 55.051C125.102 55.5677 124.824 56.2365 124.515 56.8444C123.99 57.8172 123.186 59.0027 123.526 60.1578C123.835 61.1609 124.669 61.3129 125.565 61.7081C126.153 61.9817 126.832 61.9817 127.419 62.3161C129.15 63.2888 128.254 66.1462 128.192 67.7269C128.161 68.6692 128.594 69.0036 129.49 69.186C130.077 69.3076 130.54 69.2164 131.128 69.1556C131.56 69.0948 131.993 69.2468 132.394 69.0036C132.703 68.8212 132.889 68.4564 132.982 68.1524C133.291 67.3317 133.63 66.5414 133.847 65.7206C134.156 64.6263 134.65 63.5016 135.608 62.8024C136.041 62.4984 136.381 62.4377 136.875 62.4681C137.524 62.4984 137.771 62.7416 138.173 63.228C139.007 64.1703 139.038 65.1735 138.76 66.359C138.605 67.0581 138.327 67.7269 138.204 68.426C138.111 68.9732 137.802 69.7635 137.895 70.2803C137.987 70.7059 138.513 71.0706 138.884 71.3138C139.193 71.5266 139.502 71.6786 139.811 71.861C140.027 72.013 140.305 72.3474 140.614 72.317C141.294 72.2562 141.85 70.6755 142.19 70.2499C143.21 68.9124 144.137 67.5749 144.755 65.9942C145.311 64.5655 145.867 63.1368 146.238 61.6473C146.578 60.3098 146.701 59.0939 146.64 57.6956C146.609 56.6013 146.67 55.5677 146.3 54.5342C145.929 53.5007 145.311 52.5887 144.785 51.5856C143.951 49.9441 142.931 48.2723 141.325 47.2691C140.49 46.7524 139.749 46.1748 138.914 45.7188C137.926 45.1717 136.968 44.6853 135.917 44.3205C134.712 43.9254 133.445 43.8038 132.209 43.6518C131.22 43.5606 129.675 43.4694 128.81 43.6822Z" fill="#604631"/>
<path d="M144.723 49.731C141.201 45.5969 136.473 43.1043 130.973 43.1347C125.442 43.1651 119.509 45.9313 116.326 50.491C115.893 51.1293 115.523 51.8285 115.337 52.558C114.07 53.4699 112.896 55.0506 112.433 56.3881C112.062 57.4217 111.876 58.668 111.969 59.7319C112.031 60.4919 112.371 61.3126 112.371 62.0725C112.371 63.714 111.691 63.8964 110.548 64.6868C109.528 65.4163 107.55 66.6018 107.921 68.1521C108.539 70.6751 112.865 68.4865 113.298 71.3743C113.669 73.7757 114.009 76.3595 115.183 78.5482C116.202 80.4329 118.118 80.7672 120.158 80.7368C121.981 80.7368 123.31 80.1593 124.144 82.1047C124.546 83.0167 124.885 84.1414 125.503 84.9317C126.832 86.634 129.397 86.2996 131.282 85.8741C134.094 85.2053 136.998 83.9894 139.625 82.8039C141.448 81.9831 142.56 80.828 142.004 78.7914C141.695 77.6059 140.737 76.5419 140.459 75.4172C140.088 73.7757 141.973 72.4078 142.839 71.2831C144.569 69.0337 145.99 66.6322 146.732 63.8964C148.153 59.0632 148.153 53.7739 144.723 49.731ZM139.501 80.0985C138.883 81.0712 137.647 81.2536 136.597 81.6792C134.434 82.5607 131.714 84.0806 129.335 84.0502C126.276 84.0198 126.77 81.3144 125.194 79.5817C124.206 78.5178 122.815 78.5786 121.486 78.6394C120.498 78.7002 119.293 78.913 118.335 78.609C116.851 78.1226 116.604 76.7547 116.233 75.478C116.079 74.9916 115.924 74.4749 115.77 73.9885C116.357 74.0189 116.944 73.9277 117.593 73.7757C118.458 73.5629 119.818 73.3502 120.436 72.6814C120.776 72.3166 120.467 71.7391 119.972 71.7391C119.138 71.7391 118.304 72.195 117.531 72.4382C116.851 72.651 116.141 72.6814 115.461 72.7726C115.399 72.499 115.337 72.2254 115.306 71.9215C115.183 71.0703 115.245 70.2192 114.781 69.4288C114.07 68.1825 112.247 67.7266 110.857 67.6962C110.548 67.6962 110.331 67.6354 110.208 67.605C110.61 67.1186 111.258 66.7538 111.722 66.4194C112.433 65.9027 113.236 65.4467 113.792 64.7172C114.905 63.2885 114.287 61.7686 114.07 60.1575C113.792 58.3032 114.287 55.9626 115.492 54.3211C115.708 54.7771 116.048 55.1722 116.604 55.537C118.675 56.8441 121.208 56.5401 123.588 56.2666C122.97 56.9961 122.413 57.7561 122.29 58.8808C122.135 60.2791 122.846 61.2822 124.082 61.9206C124.855 62.3157 125.874 62.2853 126.585 62.7109C127.852 63.4101 127.172 65.1123 127.049 66.3282C126.894 67.757 127.048 69.0945 128.624 69.6416C129.953 70.0976 132.487 70.1888 133.754 69.4896C135.67 68.4257 134.032 65.7203 135.361 64.2916C136.319 63.2581 137.74 63.9268 138.049 65.1731C138.296 66.1459 137.925 67.149 137.616 68.0609C137.369 68.7905 136.998 69.3984 137.122 70.2192C137.277 71.2831 138.049 72.195 138.976 72.7422C138.265 73.9581 138.018 75.2652 138.914 77.0283C139.501 78.2442 140.274 78.9434 139.501 80.0985ZM142.313 68.5473C141.695 69.4896 140.892 70.3408 140.181 71.1615C138.08 70.7055 139.872 67.5138 139.872 66.1155C139.872 64.8388 139.409 63.2277 138.389 62.3461C136.102 60.4311 133.198 62.7717 132.765 65.1123C132.672 65.5987 132.827 67.1186 132.58 67.5138C131.962 68.4561 130.046 67.9393 129.521 67.3922C128.254 66.0851 129.86 64.0484 129.15 62.4069C128.563 61.0694 127.265 61.039 126.029 60.6438C122.413 59.5495 125.658 57.2089 126.585 55.6282C126.956 54.9594 126.4 54.1691 125.658 54.1995C123.804 54.2603 120.281 55.385 118.613 54.2603C115.801 52.3756 120.158 49.3358 121.703 48.2719C125.534 45.6273 131.313 44.1682 135.855 45.9313C139.872 47.512 143.889 50.7341 145.156 54.929C146.485 59.5191 144.878 64.6564 142.313 68.5473Z" fill="black"/>
<path d="M118.397 61.1608C117.902 60.9784 117.192 61.1608 116.975 61.6776C116.821 62.0727 116.574 62.3767 116.604 62.8327C116.635 63.3494 117.13 63.8966 117.717 63.8358C117.84 63.8054 117.933 63.8054 118.057 63.7446C118.304 63.7142 118.582 63.5926 118.767 63.4102C119.015 63.1367 119.046 62.8023 119.138 62.4679C119.231 62.2247 119.138 61.7992 118.984 61.5864C118.829 61.404 118.644 61.252 118.397 61.1608Z" fill="black"/>
<path d="M31.752 53.1962C32.5863 54.0777 33.5442 54.7161 34.0695 55.8408C34.4712 56.7223 34.7802 57.5735 34.9038 58.5158C35.0274 59.4885 34.9656 60.3397 34.8729 61.3124C34.8111 61.8292 34.6257 62.8019 34.9038 63.2883C35.151 63.7138 35.8926 63.7746 36.2943 63.957C37.1286 64.3826 37.8702 64.9905 38.6736 65.5073C38.9517 65.6897 39.9715 66.2369 39.817 66.6624C39.6934 66.936 38.7045 67.1792 38.4573 67.3008C37.6848 67.7264 36.9123 68.0607 36.078 68.4255C35.6145 68.6383 35.1201 68.8511 34.9347 69.3374C34.6875 69.9454 34.6566 70.7053 34.6566 71.3437C34.6566 72.4988 34.6257 73.6539 34.4712 74.8091C34.3476 75.6906 34.0695 76.4505 33.6369 77.2409C33.297 77.8792 32.7099 78.7912 32.1228 79.2167C30.7014 80.2199 28.7546 79.2167 27.2096 79.6119C26.0972 79.8855 25.4483 81.1926 25.1393 82.1349C24.6758 83.5332 23.9342 85.5395 22.2038 85.6611C21.5549 85.7219 20.9059 85.4787 20.257 85.4483C19.4536 85.3875 18.7429 85.2355 17.9704 85.1139C17.2288 84.9923 16.4872 85.0835 15.7456 84.9315C14.8804 84.7492 14.0461 84.4756 13.2427 84.1716C12.223 83.7764 11.0796 83.5332 10.0908 83.0469C9.13292 82.5909 9.04022 81.7398 8.97842 80.7366C8.91662 79.7335 9.50373 79.004 9.62733 78.0616C9.75093 77.2409 10.0599 76.2986 9.87453 75.4778C9.75093 74.8699 9.34922 74.3227 9.41102 73.6843C9.47282 72.894 10.2453 72.4684 10.4925 71.7389C10.8015 70.8269 10.2453 69.7022 9.96723 68.8511C9.62733 67.8175 9.10202 66.2977 9.59643 65.2337C10.029 64.3522 10.8015 63.957 11.7904 63.957C12.3466 63.957 12.6556 64.4738 12.9955 64.8386C13.6135 65.5073 13.9225 66.2977 14.3242 67.088C14.9113 68.1519 14.7259 69.5198 16.1473 69.8238C16.7035 69.9454 17.4451 69.611 18.0013 69.5502C18.6193 69.4894 19.1755 69.2766 19.7626 69.0943C19.9789 69.0335 20.3497 69.0031 20.4424 68.7903C20.4733 68.6687 20.257 68.2127 20.257 68.1215C20.1643 67.7568 20.1334 67.3616 20.0407 66.9664C19.8862 66.2369 19.8862 65.5377 19.7935 64.7778C19.7008 64.1394 19.5154 63.8962 19.9789 63.4403C20.8132 62.5587 21.9875 62.4371 23.0072 61.7988C23.5634 61.4644 24.2432 60.8868 24.2123 60.1877C24.1505 59.3061 23.9651 58.5462 23.5016 57.8166C23.2853 57.4519 22.6673 56.9351 22.6673 56.4791C22.6364 56.1144 23.0381 55.932 23.378 55.7192C23.8415 55.4456 24.5213 55.4456 25.0466 55.3848C26.0663 55.2328 27.1169 55.324 28.1366 55.1416C29.0945 54.9592 29.8361 54.7769 30.5778 54.1385C30.8559 53.8345 31.9374 52.7706 31.752 53.1962Z" fill="#FFCFB4"/>
<path d="M17.6614 44.3198C19.1138 44.4718 20.5043 45.019 21.8948 45.4141C23.5325 45.8701 24.8921 46.782 26.3753 47.4812C27.3332 47.9372 28.2912 48.5755 29.0637 49.2747C29.6817 49.8522 29.9289 50.673 30.3306 51.4025C30.9486 52.6184 31.2885 54.1687 29.7744 54.8375C28.353 55.4758 26.5916 55.6278 25.0775 55.719C24.5213 55.7494 23.996 55.6582 23.4707 55.5062C23.069 55.415 22.2965 55.1415 21.9257 55.2934C22.4201 55.7798 22.76 56.4182 23.1308 56.9957C23.7488 57.9381 24.6449 59.002 24.4286 60.1875C24.2123 61.221 23.378 61.4338 22.5437 61.9202C21.9875 62.2242 21.3077 62.3154 20.7515 62.6801C19.1138 63.7744 20.2571 66.5711 20.4734 68.1213C20.597 69.0333 20.1644 69.4285 19.3301 69.6716C18.7739 69.854 18.2794 69.7932 17.6923 69.7628C17.2597 69.7628 16.8271 69.9452 16.4254 69.7324C16.1164 69.5804 15.9001 69.2461 15.7456 68.9421C15.3748 68.1517 14.9731 67.4222 14.6641 66.6015C14.2624 65.5679 13.6444 64.4432 12.6247 63.8656C12.1612 63.5921 11.8213 63.5617 11.3269 63.6225C10.678 63.7137 10.4617 63.9872 10.0909 64.504C9.34925 65.5375 9.41105 66.5103 9.81275 67.6958C10.0291 68.3645 10.369 69.0333 10.5544 69.702C10.7089 70.2188 11.0797 71.0091 11.0179 71.5259C10.9561 71.9515 10.4617 72.377 10.1527 72.6506C9.87456 72.8634 9.56555 73.0458 9.28745 73.289C9.07115 73.441 8.82395 73.8057 8.54584 73.8057C7.86603 73.8057 7.15533 72.2858 6.78452 71.8603C5.67211 70.614 4.6215 69.3677 3.84899 67.8478C3.16918 66.4799 2.45848 65.112 1.96407 63.6529C1.50057 62.3457 1.28426 61.1602 1.19156 59.7619C1.12976 58.6676 0.97526 57.6341 1.25336 56.5702C1.53147 55.5062 2.08767 54.5335 2.48938 53.5C3.16918 51.7977 4.03439 50.0346 5.54851 48.9099C6.32102 48.3323 7.00082 47.694 7.80423 47.1468C8.73124 46.5389 9.62735 45.9613 10.678 45.5053C11.8213 44.9886 13.0882 44.7758 14.3242 44.5326C15.2512 44.411 16.7653 44.1678 17.6614 44.3198Z" fill="#2F2C29"/>
<path d="M40.4658 67.0881C40.7131 65.5379 38.6427 64.5043 37.5612 63.866C36.387 63.1668 35.6763 63.0452 35.5218 61.4341C35.46 60.6742 35.7381 59.8231 35.7072 59.0631C35.7072 57.9688 35.3982 56.7529 34.9347 55.7497C34.3476 54.4426 33.0189 52.9835 31.6902 52.1628C31.4739 51.4637 31.0412 50.7949 30.5468 50.1869C26.9933 45.9312 20.8132 43.6818 15.313 44.1378C9.81272 44.5937 5.36307 47.4815 2.21124 51.9196C-0.847893 56.2361 -0.353487 61.5253 1.40783 66.2066C2.42754 68.8816 4.03436 71.1311 5.98108 73.2285C6.93899 74.262 8.97841 75.478 8.73121 77.1194C8.57671 78.2746 7.7115 79.3993 7.4952 80.6152C7.12439 82.6822 8.36041 83.7462 10.2453 84.3845C12.9646 85.3269 15.9619 86.2996 18.8356 86.6948C20.7514 86.9683 23.3471 87.0595 24.5213 85.2661C25.0775 84.4149 25.3247 83.2598 25.6337 82.3479C26.2826 80.3416 27.6731 80.7976 29.4653 80.6456C31.4739 80.4936 33.3588 80.0072 34.224 78.0314C35.1819 75.7515 35.3055 73.1373 35.46 70.7359C35.5527 67.8177 40.095 69.6416 40.4658 67.0881ZM8.63851 72.8637C7.866 72.1038 7.00079 71.3438 6.29008 70.4623C3.38545 66.8146 1.31513 61.8293 2.27304 57.1481C3.13825 52.862 6.84629 49.275 10.7088 47.3599C15.0658 45.2017 20.9368 46.144 25.0157 48.4239C26.6225 49.3358 31.2575 51.9804 28.631 54.1083C27.086 55.385 23.4707 54.5338 21.6166 54.6554C20.875 54.6858 20.3806 55.537 20.8132 56.1753C21.8638 57.6952 25.2938 59.7319 21.802 61.1302C20.5969 61.6165 19.2991 61.7989 18.8356 63.1668C18.2794 64.8691 20.0407 66.7538 18.8974 68.1521C18.403 68.76 16.549 69.4288 15.8383 68.5472C15.5602 68.1825 15.5602 66.6626 15.4366 66.1762C14.7877 63.866 11.6976 61.7989 9.59642 63.8964C8.63851 64.8691 8.3295 66.5106 8.45311 67.7873C8.63851 69.216 10.7088 72.2254 8.63851 72.8637ZM37.5303 66.8754C36.1707 67.0578 34.3785 67.6353 33.7914 68.9424C33.4206 69.7632 33.5442 70.6143 33.5133 71.4654C33.5133 71.739 33.4824 72.043 33.4515 72.3166C32.7717 72.2862 32.061 72.3166 31.3811 72.1646C30.5777 71.9822 29.7125 71.6174 28.8782 71.6782C28.3838 71.7086 28.1366 72.3166 28.5074 72.651C29.1872 73.2589 30.5777 73.3501 31.443 73.5021C32.0919 73.5933 32.679 73.6541 33.2661 73.5629C33.1734 74.0797 33.0498 74.5964 32.9571 75.0828C32.679 76.3899 32.5554 77.7578 31.1339 78.3657C30.2069 78.7609 29.0018 78.6393 28.013 78.6697C26.6534 78.7305 25.2938 78.7609 24.3977 79.916C22.9763 81.7703 23.7179 84.4453 20.6587 84.7189C18.2794 84.9621 15.4366 83.6854 13.2118 82.9862C12.1302 82.6518 10.8942 82.5607 10.1835 81.6487C9.31832 80.5544 9.99812 79.7944 10.4925 78.5785C11.2032 76.7547 10.8633 75.4476 10.029 74.3228C10.9251 73.6845 11.6049 72.6814 11.6667 71.6478C11.6976 70.8271 11.2959 70.2495 10.9869 69.5504C10.6161 68.6688 10.1526 67.6961 10.3071 66.693C10.4925 65.4163 11.883 64.6259 12.9028 65.5683C14.3242 66.8754 12.9337 69.7328 14.9731 70.6143C16.3018 71.1919 18.8047 70.8879 20.0716 70.3103C21.5857 69.6416 21.6166 68.3041 21.3385 66.8754C21.0913 65.6594 20.257 64.0484 21.4621 63.2276C22.142 62.7717 23.1617 62.6805 23.9033 62.2245C25.0775 61.4645 25.6955 60.431 25.4174 59.0327C25.2011 57.908 24.5831 57.2088 23.9033 56.5401C26.3135 56.6009 28.8473 56.6921 30.794 55.2026C31.3193 54.8074 31.6284 54.3515 31.7829 53.8955C33.1425 55.4154 33.8223 57.7256 33.7296 59.5799C33.6369 61.2214 33.1425 62.7717 34.4094 64.1092C35.0274 64.7475 35.8617 65.1427 36.6342 65.5987C37.0977 65.8722 37.8084 66.2066 38.241 66.6322C38.0556 66.7842 37.8702 66.8146 37.5303 66.8754Z" fill="black"/>
<path d="M29.4653 61.0084C29.249 61.13 29.0636 61.282 28.94 61.4948C28.8164 61.7076 28.7546 62.1332 28.8782 62.3763C29.0327 62.6803 29.0636 63.0147 29.3417 63.2579C29.558 63.4403 29.8052 63.5315 30.0833 63.5315C30.2069 63.5619 30.2996 63.5619 30.4232 63.5923C31.0103 63.6226 31.4429 63.0147 31.4429 62.4979C31.4429 62.042 31.1648 61.7684 30.9794 61.4036C30.6395 60.8868 29.9288 60.7652 29.4653 61.0084Z" fill="black"/>
<path d="M85.4257 35.1701C84.4678 35.1701 83.757 35.4741 82.8609 35.7477C81.7176 36.0821 80.5125 35.7173 79.3692 35.6565C78.4113 35.5957 77.5152 35.4133 76.5573 35.3221C75.9393 35.2613 75.2595 35.1397 74.6723 35.1397C74.1779 35.1397 73.6526 35.2917 73.1273 35.3221C71.9531 35.4133 70.748 35.4133 69.5738 35.3221C67.9052 35.2005 66.2366 34.927 64.5679 35.0182C63.5791 35.0485 62.6521 35.3525 61.6942 35.4133C61.1689 35.4437 60.6745 35.2917 60.1492 35.2309C59.5621 35.1701 58.975 35.2309 58.3879 35.2309C56.9047 35.2309 55.545 35.5653 54.0927 35.8693C52.8258 36.1429 51.5898 36.6292 50.292 36.8116C49.3959 36.9332 48.8088 37.0852 48.0981 37.6628C47.6346 38.0579 47.2019 38.4227 46.9238 38.9395C46.6148 39.4866 46.2131 40.0946 46.0277 40.7025C45.7805 41.5537 45.8114 42.4352 45.6878 43.3168C45.5642 44.3807 45.4406 45.475 45.4097 46.5389C45.317 48.8796 45.0698 51.1898 45.0698 53.5001C45.0698 54.412 45.3479 55.2327 45.3479 56.1143C45.3788 57.2694 45.5333 58.3941 45.6878 59.5188C45.8732 60.8259 45.9968 62.1634 46.3367 63.4706C46.7075 64.96 46.6766 66.5103 47.6964 67.7566C48.1599 68.3342 48.6852 68.4558 49.3959 68.547C51.0645 68.7902 52.7022 68.8206 54.4017 68.7598C56.812 68.6686 59.2531 68.8206 61.6633 68.851C62.5285 68.8814 63.4246 68.8814 64.2898 68.7294C64.8151 68.6382 65.3095 68.4254 65.8658 68.395C66.6383 68.3342 67.4417 68.4558 68.2142 68.4558C69.1412 68.4558 70.0682 68.6078 70.9643 68.6078C71.8604 68.6078 72.7565 68.699 73.6526 68.547C74.6105 68.395 75.5376 68.243 76.5264 68.1214C78.1023 67.939 79.5855 67.5743 81.1923 67.5135C82.1193 67.4831 83.0772 67.4831 84.0042 67.4831C84.8077 67.4831 85.5802 67.6959 86.3527 67.6959C88.6084 67.7566 90.7714 68.3038 92.9962 68.699C93.9851 68.8814 94.943 68.9726 95.9627 69.0942C96.9515 69.2157 97.7858 69.6109 98.7128 69.9453C99.3308 70.1581 99.9488 70.3101 100.567 70.5533C102.637 71.374 104.707 71.9516 106.963 71.7388C106.747 70.9788 106.16 70.4317 105.604 69.9149C104.831 69.1853 104.059 68.4558 103.348 67.6959C102.328 66.6015 101.123 65.72 100.567 64.2913C100.165 63.2882 100.258 62.1634 100.165 61.1299C99.9797 59.1541 99.8252 57.1782 99.8561 55.1719C99.887 53.7432 99.8252 52.2841 99.8561 50.8554C99.887 50.1259 99.8561 49.4267 99.9179 48.6972C100.042 47.2685 100.258 45.8702 100.289 44.4111C100.289 43.5296 100.072 42.7392 99.9488 41.8881C99.8252 41.1585 99.8252 40.3986 99.5471 39.7298C98.6201 37.45 96.3953 35.8389 93.9233 35.5045C91.1422 35.2309 88.2685 35.1701 85.4257 35.1701Z" fill="#F4F4F4"/>
<path d="M45.9969 67.0576C46.5531 69.4286 48.9943 69.8846 51.2191 70.1278C54.34 70.4622 57.5536 70.219 60.6746 70.1886C64.0427 70.1582 67.3799 69.915 70.7481 69.915C74.6415 69.8846 78.5659 69.5502 82.4902 69.3678C85.7656 69.2159 89.7209 68.6383 92.9036 69.3374C95.9319 70.0062 99.0528 70.9181 101.988 71.8909C103.472 72.3772 106.932 74.1707 108.477 73.2892C108.941 73.0156 109.095 72.3164 108.786 71.8605C107.489 69.9758 105.542 68.4559 103.719 67.088C102.421 66.0849 101.679 64.8386 101.309 63.4403C101.185 61.434 101.185 59.3669 101.185 57.4823C101.185 54.0777 101.278 50.7036 101.247 47.299C101.247 42.9825 102.05 37.3285 96.7971 35.8694C94.0778 35.1095 91.1114 35.1095 88.2995 34.9575C84.8695 34.8055 81.4396 34.5319 77.9788 34.4711C71.1807 34.3191 64.3826 34.5319 57.5845 34.8663C54.6181 35.0183 51.7753 35.4742 48.9634 36.4774C46.6149 37.3285 45.5643 38.6964 45.0699 41.0066C43.803 46.7822 44.5755 52.649 44.9463 58.4854C45.1317 61.1908 45.348 64.3218 45.9969 67.0576ZM46.4913 48.5149C46.4295 45.9311 46.6149 43.2865 47.2638 40.7635C48.0363 37.8453 53.2276 37.2069 55.7923 36.9637C67.2872 35.8694 79.0294 36.3862 90.5243 37.0549C92.1929 37.1461 93.8924 37.2677 95.5301 37.6325C97.4769 38.0581 98.4348 38.9092 98.8674 40.8851C99.4854 43.6513 99.1764 46.7518 99.1146 49.5788C99.0528 52.6186 98.9601 55.7496 99.1455 58.7894C99.1764 59.3669 99.2073 59.9445 99.2073 60.5221C98.9292 62.6499 99.1455 65.2641 100.351 66.8752C101.463 68.3647 103.101 69.3678 104.584 70.523C103.719 70.2494 102.854 69.9758 101.988 69.7022C99.6399 68.9727 97.2297 68.4255 94.8503 67.7568C90.1535 66.4192 84.9004 67.1488 80.0182 67.3616C74.3634 67.6048 68.7087 68.0303 63.0539 68.0607C60.242 68.0911 57.4609 68.2127 54.649 68.2127C53.3203 68.2127 51.9298 68.1823 50.632 67.9391C49.8595 67.8176 48.4689 67.6048 48.0054 66.9056C47.5728 66.2369 47.7273 64.6866 47.6346 63.957C47.202 58.7894 46.6458 53.7129 46.4913 48.5149Z" fill="black"/>
<path d="M53.1964 112.229C50.7244 111.894 48.4996 110.283 47.5726 108.004C47.2945 107.304 47.2945 106.544 47.1709 105.845C47.0473 104.994 46.831 104.204 46.831 103.322C46.831 101.863 47.0473 100.495 47.2018 99.0361C47.2636 98.337 47.2636 97.6075 47.2636 96.8779C47.2945 95.4492 47.2327 93.9901 47.2636 92.5614C47.2945 90.5855 47.14 88.5793 46.9546 86.6034C46.8619 85.5395 46.9237 84.4148 46.5529 83.442C45.9967 82.0133 44.8224 81.1318 43.7718 80.0375C43.0611 79.2775 42.2886 78.548 41.5161 77.8184C40.9599 77.3017 40.3728 76.7545 40.1565 75.9946C42.4122 75.7514 44.4825 76.3289 46.5529 77.1801C47.1709 77.4233 47.7889 77.5753 48.4069 77.788C49.3339 78.1224 50.1682 78.5176 51.157 78.6392C52.1458 78.7608 53.1346 78.8824 54.1234 79.0344C56.3483 79.3991 58.5113 79.9463 60.767 80.0375C61.5395 80.0679 62.312 80.2503 63.1154 80.2503C64.0425 80.2503 65.0004 80.2503 65.9274 80.2199C67.5033 80.1591 69.0174 79.8247 70.5933 79.6119C71.5512 79.4903 72.5091 79.3383 73.4671 79.1863C74.3632 79.0647 75.2593 79.1255 76.1554 79.1255C77.0824 79.1255 78.0094 79.3079 78.9055 79.2775C79.678 79.2775 80.4814 79.3991 81.2539 79.3383C81.7792 79.3079 82.3046 79.0647 82.8299 79.004C83.6951 78.8824 84.5912 78.8824 85.4564 78.8824C87.8666 78.9432 90.3077 79.0647 92.718 78.9736C94.4175 78.9128 96.0552 78.9128 97.7238 79.1863C98.4345 79.3079 98.9598 79.3991 99.4233 79.9767C100.443 81.223 100.381 82.8037 100.783 84.2628C101.123 85.5699 101.216 86.877 101.432 88.2145C101.617 89.3392 101.741 90.4639 101.772 91.6191C101.803 92.5006 102.05 93.3214 102.05 94.2333C102.05 96.5739 101.834 98.8842 101.71 101.194C101.648 102.289 101.555 103.353 101.432 104.417C101.339 105.268 101.339 106.18 101.092 107.031C100.907 107.639 100.505 108.247 100.196 108.794C99.8868 109.311 99.4542 109.675 99.0216 110.071C98.3418 110.648 97.7238 110.8 96.8277 110.922C95.5608 111.104 94.2939 111.59 93.027 111.864C91.6055 112.168 90.215 112.502 88.7318 112.502C88.1447 112.502 87.5576 112.563 86.9705 112.502C86.4452 112.442 85.9508 112.29 85.4255 112.32C84.4676 112.381 83.5406 112.685 82.5518 112.715C80.8831 112.776 79.2145 112.533 77.5459 112.411C76.3717 112.32 75.1666 112.29 73.9924 112.411C73.498 112.442 72.9417 112.594 72.4473 112.594C71.8293 112.594 71.1495 112.502 70.5624 112.411C69.6354 112.32 68.7084 112.138 67.7505 112.077C66.6072 112.016 65.4021 111.651 64.2588 111.986C63.3626 112.259 62.6519 112.563 61.694 112.563C58.8821 112.715 56.0084 112.624 53.1964 112.229Z" fill="#F4F4F4"/>
<path d="M102.328 107.152C103.595 101.377 102.822 95.5099 102.452 89.6735C102.266 86.8769 102.05 83.7459 101.432 81.0405C100.876 78.6695 98.4346 78.2135 96.2098 77.9703C93.0888 77.636 89.8752 77.8791 86.7543 77.9095C83.3861 77.9399 80.0489 78.1831 76.6808 78.1831C72.7873 78.2135 68.863 78.5479 64.9386 78.7303C61.6632 78.8823 57.708 79.4598 54.5252 78.7607C51.497 78.0919 48.3761 77.18 45.4405 76.2073C43.9573 75.7209 40.4965 73.9274 38.9515 74.809C38.4879 75.0825 38.3334 75.7817 38.6425 76.2377C39.9403 78.1223 41.887 79.6422 43.7101 81.0101C45.0079 82.0133 45.7495 83.2596 46.1203 84.6579C46.2439 86.6641 46.2439 88.7312 46.2439 90.6159C46.2439 94.0204 46.1512 97.3946 46.1821 100.799C46.1821 105.116 45.3787 110.77 50.6318 112.229C53.351 112.989 56.3174 112.989 59.1294 113.141C62.5593 113.293 65.9892 113.566 69.4501 113.627C76.2482 113.779 83.0462 113.566 89.8443 113.232C92.8107 113.08 95.6536 112.624 98.4655 111.621C100.783 110.83 101.834 109.493 102.328 107.152ZM99.7015 84.1107C100.227 89.2783 100.783 94.3852 100.907 99.5832C100.968 102.167 100.783 104.812 100.134 107.335C99.3616 110.253 94.1704 110.891 91.6056 111.134C80.1107 112.229 68.3686 111.712 56.8737 111.043C55.205 110.952 53.5055 110.83 51.8678 110.466C49.9211 110.04 48.9632 109.189 48.5306 107.213C47.9126 104.447 48.2216 101.346 48.2834 98.5193C48.3452 95.4795 48.4379 92.3485 48.2525 89.3087C48.2216 88.7312 48.1907 88.1536 48.1907 87.5761C48.4688 85.4482 48.2525 82.834 47.0473 81.2229C45.9349 79.7334 44.2972 78.7303 42.814 77.5752C43.6792 77.8487 44.5444 78.1223 45.4096 78.3959C47.7581 79.1255 50.1683 79.6726 52.5476 80.3414C57.2445 81.6789 62.4975 80.9493 67.3798 80.7365C73.0345 80.4934 78.6893 80.0678 84.344 80.0374C87.156 80.007 89.937 79.8854 92.7489 79.8854C94.0777 79.8854 95.4682 79.9158 96.766 80.159C97.5385 80.2806 98.929 80.4934 99.3925 81.1925C99.7942 81.8309 99.6397 83.3812 99.7015 84.1107Z" fill="black"/>
</svg>
