<svg width="136" height="136" viewBox="0 0 136 136" fill="none" xmlns="http://www.w3.org/2000/svg">
<g clip-path="url(#clip0)">
<path d="M67.954 133.787C105.484 133.787 135.908 103.838 135.908 66.8936C135.908 29.9493 105.484 0 67.954 0C30.424 0 0 29.9493 0 66.8936C0 103.838 30.424 133.787 67.954 133.787Z" fill="#F57E34"/>
<path d="M35.3593 64.2023C32.5646 71.6183 34.0834 80.4398 39.2172 86.5102C40.9791 88.6034 43.1966 90.4873 44.1687 93.059C45.08 95.4811 43.227 101.581 45.4446 103.136C45.8395 103.435 46.3559 103.525 46.8419 103.645C53.3123 105.14 59.7523 106.605 66.2226 108.1C66.8606 105.469 67.4985 102.837 68.106 100.206C69.5945 100.505 71.1134 100.953 72.6019 100.744C76.2168 100.206 78.0698 96.2586 78.9203 92.7898C79.7709 89.3211 80.5304 85.314 83.5985 83.4002C85.1781 82.3835 87.1222 82.1443 88.9449 81.6658C89.279 81.5761 89.6435 81.4565 89.8258 81.1575C89.9777 80.8883 89.9473 80.5295 89.8562 80.2006C89.0056 77.2402 86.2717 75.4759 84.1149 73.4424C81.5024 70.9904 81.0771 68.7177 80.5607 65.3088C79.4975 58.3114 75.2143 50.5366 67.2555 49.8787C63.3064 49.5498 58.9625 48.8919 54.9527 49.3703C46.3255 50.417 38.4274 56.1285 35.3593 64.2023Z" fill="#FFCFB4"/>
<path d="M29.6178 131.724C29.557 132.083 29.5266 132.501 29.7393 132.8C29.9519 133.159 30.4076 133.309 30.8328 133.399C34.2047 134.236 37.7285 134.116 41.2219 133.997C50.8515 133.668 60.4811 133.339 70.0803 133.01C70.536 132.98 71.022 132.98 71.3865 132.711C71.7511 132.471 71.9637 132.053 72.1156 131.634C72.8446 129.511 72.0548 127.209 71.2346 125.115C69.3209 120.062 67.3767 115.008 65.463 109.954C65.2807 109.446 65.0681 108.938 64.7035 108.579C64.2175 108.1 63.5188 107.891 62.8505 107.712C60.9064 107.203 58.9926 106.665 57.0484 106.157C52.7956 105.02 48.5428 103.854 44.2596 102.718C43.8343 102.598 43.409 102.479 42.9838 102.598C42.4066 102.748 42.0421 103.286 41.7383 103.794C36.3615 112.795 30.9544 121.048 29.6178 131.724Z" fill="#6CA813"/>
<path d="M86.5146 74.6683C84.4186 72.6947 83.0516 70.6912 82.4441 67.9102C81.8973 65.488 81.9581 63.036 81.1682 60.6437C79.1026 54.4537 73.7562 49.9384 67.3769 48.8917C58.689 46.2902 47.9962 48.2638 41.1006 53.7959C33.2328 60.0756 30.8634 71.3192 33.5974 80.6789C34.2353 82.8618 35.2074 84.9551 36.5744 86.8091C38.3059 89.1415 40.9183 90.7862 42.5587 93.1785C43.8042 94.9727 43.8953 96.5276 43.3789 98.591C43.1966 99.3684 42.7713 100.086 42.6802 100.893C39.4298 104.243 37.1515 109.087 35.177 113.184C33.1417 117.37 31.4102 121.706 30.0129 126.162C29.2534 128.584 26.6106 133.907 29.9521 135.551C31.6836 136.389 34.2353 135.88 36.0883 135.88C39.126 135.85 42.1638 135.791 45.2319 135.761C50.8821 135.671 56.5322 135.611 62.2128 135.521C65.3113 135.492 71.569 136.598 73.6954 133.548C75.7003 130.677 73.5739 125.324 72.7233 122.394C71.3564 117.58 69.3211 113.094 66.7086 108.848C68.2275 107.442 67.8934 104.362 69.4426 102.419C69.5337 102.329 69.5641 102.209 69.6249 102.12C72.2069 102.478 74.8801 102.448 76.6724 100.864C80.0747 97.9032 79.8013 91.8926 81.7454 88.0949C83.0516 85.5232 84.9654 83.7589 87.8209 83.131C89.0663 82.8618 90.3726 82.9216 91.132 81.6956C92.9243 78.7651 88.1854 76.2233 86.5146 74.6683ZM69.1085 120.301C69.716 122.125 70.2628 123.979 70.6881 125.863C71.2045 128.135 72.4196 131.215 69.5337 132.531C68.1364 133.159 64.9771 132.621 63.4886 132.621L56.9575 132.711C52.8262 132.77 48.6949 132.83 44.5636 132.89L38.7008 132.98C37.516 133.01 33.1721 133.727 32.1696 133.069C29.9825 131.634 33.4151 123.829 34.053 121.945C35.3289 118.267 36.8477 114.709 38.64 111.24C40.0677 108.489 41.9208 105.857 43.3485 103.076C43.8041 103.585 44.4117 103.944 45.08 104.243C47.9962 105.558 51.52 106.097 54.5881 106.994C57.4739 107.831 60.5117 109.057 63.4583 109.446C63.7924 109.476 64.1266 109.506 64.4 109.506C66.253 112.974 67.863 116.593 69.1085 120.301ZM87.426 80.5294C86.3628 81.1872 84.8439 81.2471 83.6896 81.9946C82.596 82.7422 81.6543 83.6991 80.8645 84.7457C79.5582 86.4801 78.7684 88.4537 78.1305 90.4573C76.9762 90.3376 75.7611 90.5171 74.6067 90.3077C72.7841 89.9489 71.1741 89.2013 69.7464 88.0351C68.6832 87.1679 67.1947 88.693 68.2579 89.5004C69.9894 90.8161 71.9032 91.773 74.0903 92.1019C75.1232 92.2515 76.4294 92.401 77.5837 92.1618C77.3407 93.0289 77.0977 93.8961 76.7939 94.7633C75.9433 97.3948 74.9713 99.3983 71.7817 99.3684C69.7464 99.3385 67.8022 98.7704 65.7973 98.4414C64.8556 98.2919 62.7596 97.5144 62.152 98.7704C61.423 100.355 64.2177 100.983 65.2201 101.193C65.7366 101.312 66.3441 101.432 66.9213 101.551C66.5568 102.179 66.3137 102.837 66.1315 103.645C65.9796 104.243 66.0403 105.2 65.7062 105.768C64.4911 107.861 61.7875 106.635 60.1775 106.186C57.6562 105.499 55.1349 104.841 52.6136 104.153C50.4568 103.585 44.9889 103.286 45.1711 100.146C45.2623 98.6507 46.2343 97.4546 46.0521 95.8099C45.8698 94.1055 45.0496 92.5206 44.0168 91.1749C41.1613 87.437 37.6376 85.1644 36.1187 80.4995C33.324 71.9172 35.5111 61.3016 42.7106 55.4705C46.2647 52.5698 50.6998 50.8953 55.2564 50.2673C59.8434 49.6393 64.1569 50.3869 68.6528 50.8654C75.0624 52.8091 79.376 58.5804 79.6797 65.4282C79.8316 68.7475 80.2569 71.5584 82.3833 74.2497C83.3554 75.4458 84.4794 76.4924 85.6337 77.4792C86.7273 78.4063 89.0967 79.4828 87.426 80.5294Z" fill="black"/>
<path d="M53.4639 81.1275C52.4311 82.3236 51.6716 83.729 50.0616 84.2673C47.753 85.0149 45.2013 83.6094 44.1381 81.6059C41.799 77.2699 45.6266 70.0932 51.1552 72.6948C51.7931 72.9938 52.3703 72.0967 51.7324 71.7379C45.0798 68.0299 40.0979 76.2233 42.3458 81.9349C43.4698 84.7757 46.1733 86.8689 49.363 86.839C52.0969 86.839 55.4384 84.7757 55.1347 81.7853C55.0131 81.0677 54.0411 80.4397 53.4639 81.1275Z" fill="black"/>
<path d="M51.763 76.6121C51.7326 75.2067 50.3049 74.2797 48.9683 74.6086C47.4798 74.9674 46.5381 76.5224 46.4166 77.9577C46.3862 78.197 46.7507 78.3465 46.9026 78.1671C47.4494 77.569 47.7532 76.7915 48.4519 76.343C48.9075 76.0439 50.4568 75.8346 49.8492 76.941C49.7581 77.1504 49.3328 77.3597 49.1809 77.5391C48.786 77.9876 48.6341 78.4661 48.7253 79.0342C48.8164 79.722 49.3936 80.7088 48.1481 80.8284C47.2671 80.9181 46.9026 82.2638 47.9051 82.503C49.3632 82.8319 50.7909 81.8152 50.9124 80.3201C50.9732 79.5127 50.396 79.0343 50.8213 78.3764C51.3073 77.7185 51.7934 77.4195 51.763 76.6121Z" fill="black"/>
<path d="M66.7999 9.03081C63.0027 10.0475 59.236 11.2736 55.8945 13.3369C52.5833 15.4002 49.7279 18.3905 48.4824 22.0686C47.6015 24.73 47.723 27.6007 48.8165 30.1724C49.8797 32.6843 52.0365 34.5383 54.1326 36.3026C58.5373 40.0106 63.7318 42.8514 69.2301 44.6456C76.9459 47.1874 85.2693 47.7854 93.3497 46.8285C93.8661 46.7687 94.4736 46.7089 94.8685 47.0677C95.0812 47.2771 95.1723 47.5761 95.2634 47.8452C95.6583 49.0713 95.9317 50.387 96.5393 51.5233C96.9646 52.3307 97.481 52.7195 96.9038 53.5867C96.2963 54.4539 94.8382 54.9622 93.9876 55.65C93.0459 56.3976 92.2257 57.2648 91.6485 58.3114C90.3119 60.7634 90.5853 63.9033 92.0434 66.2955C93.5016 68.6878 96.0229 70.3624 98.7265 71.1399C101.43 71.9174 104.346 71.8575 107.141 71.3791C107.688 71.2894 108.417 71.2894 108.538 71.7977C108.569 71.9473 108.538 72.1267 108.508 72.3061C107.627 76.2234 106.139 79.9912 104.073 83.46C103.921 83.7291 103.739 83.9983 103.739 84.2973C103.678 85.0449 104.559 85.5532 105.288 85.4934C106.017 85.4037 106.655 84.9253 107.232 84.4468C110.331 81.8751 113.429 78.8848 114.401 75.0273C114.492 74.6086 114.583 74.19 114.826 73.8312C115.343 73.0836 116.376 72.8743 117.257 72.6948C120.203 72.0968 123.119 70.7212 124.942 68.3589C126.582 66.2357 127.251 63.5145 127.403 60.8531C127.555 58.4908 127.251 55.8892 125.61 54.1548C125.003 53.497 124.243 53.0185 123.454 52.57C118.441 49.759 112.366 49.1012 106.655 49.9684C105.622 50.1179 103.496 50.8356 102.493 50.387C101.552 49.9684 100.914 48.1144 100.397 47.2472C100.185 46.8883 99.9719 46.4697 100.185 46.1108C100.336 45.8716 100.64 45.752 100.914 45.6623C105.744 44.0176 110.331 42.4626 114.766 39.8611C119.11 37.3193 123.605 34.2991 125.458 29.6641C126.005 28.3184 126.279 26.8831 126.309 25.4477C126.4 20.095 122.755 15.1909 118.138 12.3501C113.52 9.50926 108.022 8.40284 102.645 7.68516C96.6304 6.84787 90.5853 6.78806 84.5402 6.69835C78.5863 6.60864 72.5716 7.47584 66.7999 9.03081Z" fill="#F4F4F4"/>
<path d="M105.379 59.7169C105.136 60.7635 105.106 61.9895 105.895 62.7072C106.503 63.2753 107.414 63.3352 108.234 63.3651C108.356 64.2622 108.508 65.1294 108.69 66.0264C108.751 66.3554 108.842 66.7441 109.146 66.9235C109.601 67.2226 110.179 66.8637 110.695 66.7142C111.242 66.5647 111.88 66.6544 112.396 66.3554C113.004 65.9965 113.186 65.249 113.125 64.5612C113.064 63.8734 112.821 63.2454 112.761 62.5577C112.761 62.4082 112.761 62.2287 112.821 62.0792C112.913 61.9297 113.064 61.84 113.186 61.7503C114.735 60.7635 115.252 58.5207 114.31 56.9658C111.789 52.7793 106.23 56.2182 105.379 59.7169Z" fill="#F57E34"/>
<path d="M76.308 23.0255C72.207 21.6799 67.4985 22.3078 63.914 24.7001C62.9723 25.3281 62.061 26.1056 61.6357 27.1223C61.1801 28.139 61.332 29.4846 62.1825 30.2023C62.6989 30.621 63.3672 30.8004 64.0355 30.92C66.1923 31.3386 68.3795 31.518 70.597 31.6975C79.3153 32.3852 88.0336 33.073 96.7519 33.7907C98.696 33.9402 100.914 34 102.311 32.6843C104.134 30.9499 103.374 27.6605 101.339 26.1953C99.3036 24.73 96.5089 24.7001 94.0179 25.2085C93.9268 21.9191 92.894 18.54 90.4942 16.2674C84.8136 10.7951 75.9738 15.6095 76.308 23.0255Z" fill="#6CA813"/>
<path d="M128.344 59.0589C127.19 51.6429 120.507 48.8619 113.793 48.8021C110.209 48.5031 106.594 48.832 103.131 49.8786C102.675 49.3404 102.159 48.832 101.734 48.2938C101.491 47.9648 101.217 47.6359 100.944 47.3069C102.797 46.8584 104.619 46.3201 106.381 45.6623C110.573 44.6456 114.522 42.7318 118.016 40.2199C122.998 36.6315 128.375 30.92 127.949 24.4011C127.554 18.1812 122.178 13.6658 116.892 11.0941C109.723 7.65523 101.521 6.72823 93.6836 5.92084C79.6189 4.45558 60.7243 4.635 50.5175 16.0281C46.2647 20.7828 45.5052 27.0923 48.6341 32.6843C51.9148 38.5453 58.2941 42.0739 64.3695 44.5559C73.6042 48.3237 84.2363 49.7889 94.3823 48.533C94.5342 48.9815 94.7468 49.4301 94.8987 49.8487C95.2936 50.8654 95.6582 51.9719 96.1138 53.0185C93.714 54.4837 91.5572 56.3975 90.3118 58.73C88.2765 62.5576 89.7042 66.8338 92.8027 69.6447C96.7517 73.2331 102.22 73.3826 107.293 73.1733C106.959 75.3562 106.321 77.4494 105.288 79.423C104.619 80.679 103.496 81.7854 102.918 83.1012C102.129 84.8654 102.706 86.9288 105.045 86.7194C107.596 86.4802 110.3 83.9085 111.849 82.1442C113.854 79.8417 115.069 77.2102 115.677 74.2797C123.18 73.1135 129.559 66.9235 128.344 59.0589ZM114.583 72.2164C114.067 72.2762 113.793 72.7546 113.702 73.2032C113.307 75.5954 112.457 77.8083 111.029 79.7819C110.452 80.5594 105.592 85.6728 105.926 83.0413C106.017 82.2639 107.232 81.0079 107.627 80.2603C108.022 79.5128 108.356 78.7652 108.66 77.9877C109.419 76.0141 109.814 73.9807 110.057 71.8874C110.118 71.2595 109.541 70.5418 108.872 70.5418C104.559 70.6913 99.4857 70.9604 95.6885 68.5383C91.0712 65.5778 90.6459 60.5242 94.5646 56.8461C95.324 56.1284 96.1442 55.5004 97.0859 55.1117C97.815 54.8127 98.3314 54.3641 98.4225 53.5268C98.5744 52.0616 97.42 50.6561 96.8429 49.4301C96.3265 48.3536 95.9012 46.8883 94.838 46.2304C93.7748 45.6025 92.2559 45.8118 91.1016 45.9015C89.2789 46.051 87.4563 46.1108 85.6337 46.0809C82.0795 46.051 78.5254 45.6623 75.032 44.9745C64.9163 42.9112 44.8673 35.6148 49.6669 21.8892C51.7933 15.8188 58.8105 12.35 64.5822 10.4661C71.1437 8.3131 78.1001 7.77484 84.9654 8.04397C91.3446 8.2832 97.7846 9.03078 104.073 10.1671C110.634 11.3632 117.925 13.4266 122.481 18.54C128.344 25.1486 124 32.4749 118.168 37.3492C116.497 38.7546 114.644 39.9208 112.669 40.8777C109.267 42.5523 105.592 43.5989 101.886 44.3764C100.61 44.6456 99.0604 44.3465 98.9997 46.051C98.9693 47.1574 99.4857 48.3237 100.002 49.2806C100.67 50.4767 101.764 52.0317 103.313 52.1214C104.073 52.1812 104.862 51.7625 105.592 51.5831C106.321 51.4037 107.05 51.2243 107.809 51.1047C110.665 50.5664 113.642 50.387 116.527 50.8654C121.175 51.613 125.003 54.394 125.914 59.1187C127.22 66.1759 121.266 71.4688 114.583 72.2164Z" fill="black"/>
<path d="M100.306 24.9992C99.6678 24.7599 98.8476 24.5805 98.1793 24.5207C97.3895 24.431 95.9314 24.7898 95.2024 24.5207C93.7442 23.9525 94.0784 20.8426 93.5924 19.5568C92.5292 16.5963 90.1293 14.234 87.0005 13.4565C80.9858 11.9314 75.6394 16.4169 75.7305 22.1583C72.1764 21.2014 68.44 21.4706 65.1288 23.1751C62.8202 24.3712 58.9015 27.4213 61.1798 30.3219C61.9088 31.2489 63.0024 31.5779 64.096 31.8171C67.1945 32.5647 70.6879 32.4152 73.8471 32.5348C74.6977 32.5647 75.5482 32.6245 76.3988 32.6544C78.9201 32.8637 81.4111 33.0431 83.902 33.2824C89.0661 33.7309 94.4125 34.7775 99.6071 34.6878C106.138 34.5682 105.47 26.9429 100.306 24.9992ZM97.0554 32.7441C93.6835 32.475 90.2205 32.4152 86.9094 31.7872C85.7246 31.548 84.7526 31.219 83.4767 31.1592C80.2263 30.9798 76.976 30.9798 73.7256 30.92C71.8118 30.8004 69.8677 30.7107 67.9539 30.6808C67.1945 30.621 66.4351 30.5612 65.6756 30.4416C63.8226 30.1724 60.6634 29.9332 63.6707 26.1355C64.1568 25.5374 65.1896 25.0291 65.8883 24.7001C69.169 23.0255 72.9662 22.9358 76.3988 24.1619C77.0367 24.3712 77.6139 23.803 77.5228 23.205C76.0647 14.6825 88.0637 11.8118 91.6482 19.3773C92.4988 21.2014 91.5875 24.132 92.8937 25.5673C93.9569 26.7335 96.1744 26.0159 97.5414 26.1355C99.3641 26.3149 101.49 26.9728 102.341 28.767C104.164 32.5049 99.6071 32.9235 97.0554 32.7441Z" fill="black"/>
<path d="M112.73 54.9622C110.179 54.0352 107.384 55.2014 105.683 57.175C104.862 58.1319 104.133 59.3281 104.285 60.6139C104.407 61.6605 104.589 63.3949 105.743 63.8135C106.199 63.9631 106.746 63.9033 107.141 64.1425C107.596 64.4116 107.748 65.0396 107.809 65.5778C107.839 66.1161 107.809 66.6843 108.082 67.1627C108.751 68.2392 111.242 67.8206 112.244 67.6113C113.004 67.4617 113.733 67.3122 113.854 66.4749C113.976 65.6077 113.581 64.4116 113.52 63.5444C113.49 63.3351 113.49 63.1557 113.55 62.9763C113.672 62.6772 113.976 62.5277 114.249 62.3782C115.069 61.8698 115.616 61.0026 115.768 60.0457C116.072 57.9824 114.614 55.65 112.73 54.9622ZM113.793 60.0756C113.702 60.4046 113.55 60.7036 113.399 60.9129C112.761 61.6904 111.88 61.4512 112.153 62.7669C112.275 63.3351 112.396 63.9332 112.518 64.5013C112.548 64.6508 112.578 64.8303 112.518 64.9798C112.426 65.1592 112.214 65.219 112.032 65.2788C111.211 65.4881 109.692 66.2656 109.085 65.518C108.508 64.8004 109.024 63.4547 108.295 62.7968C108.022 62.5576 107.688 62.4679 107.353 62.3483C106.655 62.139 106.138 62.0194 105.804 61.3017C104.771 59.0589 108.386 56.2181 110.361 56.0088C112.032 55.8294 113.945 56.9059 114.006 58.7001C114.006 59.0888 113.915 59.5972 113.793 60.0756Z" fill="black"/>
<path d="M75.4269 67.8205C74.3029 67.4019 72.7233 67.8205 72.2373 69.0167C71.8728 69.8839 71.326 70.6015 71.3867 71.5883C71.4779 72.7546 72.5715 74.0105 73.8473 73.8012C74.1207 73.7713 74.3637 73.7115 74.6067 73.6218C75.1839 73.5619 75.761 73.2928 76.1863 72.8443C76.7331 72.2163 76.7939 71.4986 77.0369 70.7511C77.2192 70.1829 77.0369 69.2559 76.6724 68.8073C76.399 68.3588 75.9737 68.0299 75.4269 67.8205Z" fill="black"/>
</g>
<defs>
<clipPath id="clip0">
<rect width="135.878" height="136" fill="white"/>
</clipPath>
</defs>
</svg>
