<svg width="36" height="25" viewBox="0 0 36 25" fill="none" xmlns="http://www.w3.org/2000/svg">
<path fill-rule="evenodd" clip-rule="evenodd" d="M35.8941 11.3448C36.1434 6.47764 36.3786 1.88797 31.2695 0.301649C31.137 0.180629 30.9698 0.0880383 30.7331 0.0881937C29.1889 0.079469 27.6447 0.0634647 26.1005 0.0474603C22.5853 0.011029 19.0702 -0.0254023 15.555 0.0240327C14.3312 0.0398316 13.1161 0.143619 11.9012 0.247387C10.9299 0.330347 9.95876 0.413293 8.98348 0.451255C8.36997 0.476984 7.70562 0.423891 7.03039 0.369928C5.8343 0.274338 4.60408 0.17602 3.56182 0.508269C1.24805 1.23455 0.781277 3.44895 0.551238 5.65637C0.112141 9.89301 -0.201522 14.4573 0.153952 18.7724C-0.396591 23.2512 2.62083 24.6255 7.09481 24.8391C14.9973 25.2095 23.0394 24.8747 30.949 24.4973L30.9648 24.4966C32.5691 24.4256 34.1293 24.3565 34.9072 22.6744C35.8275 20.6755 35.8152 17.6588 35.8047 15.0747C35.8013 14.2345 35.798 13.4401 35.8271 12.7413C35.8465 12.2748 35.8704 11.8085 35.8941 11.3448ZM17.5959 8.53498C19.5427 9.56505 21.4623 10.6599 23.3684 11.7762C20.0698 14.1674 16.7307 16.4722 13.2632 18.5897C13.2996 17.6553 13.3538 16.7042 13.4084 15.7456C13.5871 12.6106 13.7704 9.39424 13.3511 6.41026C13.4278 6.44001 13.5022 6.46808 13.5689 6.49326C13.696 6.54121 13.7954 6.57871 13.8309 6.59757C15.1017 7.21687 16.3521 7.87231 17.5959 8.53498Z" fill="#FF1D25"/>
</svg>
