<svg width="244" height="70" viewBox="0 0 244 70" fill="none" xmlns="http://www.w3.org/2000/svg">
<path d="M101.439 3.72297C101.847 1.26826 103.235 0 105.604 0C104.46 6.05494 103.603 12.0281 103.072 17.9603C108.503 18.083 111.239 18.3694 111.239 18.7785C111.239 18.9421 110.668 19.1467 109.524 19.4331C106.339 20.1286 104.052 20.5786 102.704 20.7423C102.296 25.5698 102.092 29.3337 102.092 31.993C102.174 36.2887 102.214 38.8662 102.255 39.848C102.255 40.2981 102.174 40.5026 102.051 40.5026C101.724 40.5026 101.194 39.3162 100.377 36.9433C99.56 34.5704 99.1925 30.9293 99.1925 26.0199C99.1925 24.5061 99.2333 22.9106 99.3559 21.1923L92.9853 22.5015C92.4953 22.5015 92.2502 22.3787 92.2502 22.1742C92.2502 21.6423 92.4136 20.9468 92.7403 20.1695C93.067 19.3922 93.3937 18.9831 93.6795 18.9831C95.7622 18.4512 97.7632 18.1648 99.6825 18.1648C100.458 11.0053 101.071 6.17767 101.439 3.72297Z" fill="white"/>
<path d="M109.729 24.7516C109.729 24.2607 109.892 23.9334 110.219 23.6879C110.545 23.4424 110.954 23.3197 111.525 23.3197C112.097 23.3197 112.424 23.4833 112.505 23.8516C114.098 32.3612 115.527 36.6978 116.752 36.7797C118.059 36.7797 119.529 35.675 121.122 33.4249C120.142 31.5839 119.243 29.5383 118.427 27.3291C118.835 26.429 119.611 25.9381 120.795 25.8971C121.367 27.6973 122.02 29.2928 122.715 30.7247L125.247 24.6698C125.247 25.038 125.287 25.4471 125.287 25.8153C125.287 28.3928 125.001 30.6838 124.389 32.7703C125.083 34.2022 125.9 35.1023 126.798 35.5114C128.146 35.5114 130.147 31.8703 132.842 24.588C132.515 29.9474 131.74 33.7522 130.555 36.0023C129.371 38.2525 128.146 39.3571 126.88 39.3571C125.696 39.3571 124.307 38.1707 122.755 35.7569C120.346 38.8662 118.223 40.3799 116.303 40.3799C113.853 40.2572 111.648 35.0205 109.729 24.7516Z" fill="white"/>
<path d="M137.13 25.7744C138.069 22.5424 139.784 20.9059 142.275 20.9059C145.338 21.0286 147.543 22.256 148.891 24.6289C150.239 27.0018 150.933 29.2519 151.014 31.3384C151.014 33.2613 150.157 35.1841 148.401 37.1888C146.686 39.398 144.603 40.4617 142.112 40.4617C140.07 40.339 138.478 39.7253 137.416 38.5389C136.313 37.3524 135.782 35.7978 135.782 33.8749C135.742 31.7475 136.191 29.0474 137.13 25.7744ZM145.869 26.1017C144.562 24.6289 143.46 23.9334 142.602 23.9334C141.5 23.9334 140.601 25.0789 139.907 27.3291C139.213 29.5792 138.886 31.4611 138.886 32.9749C138.886 34.5704 139.172 35.716 139.703 36.4524C140.234 37.1888 140.969 37.557 141.826 37.557C143.051 37.557 144.399 36.8615 145.787 35.4296C147.176 33.9977 147.87 32.5249 147.87 31.0111C147.829 29.1701 147.176 27.5745 145.869 26.1017Z" fill="white"/>
<path d="M153.914 22.9924C153.996 22.4197 154.404 22.1333 155.098 22.1333C156.65 22.1333 157.467 23.9334 157.467 27.5336C159.427 24.7925 161.387 23.4015 163.388 23.3606C164.654 23.3606 165.389 23.5243 165.634 23.8925C165.879 24.2607 166.002 24.5471 166.002 24.7516C166.002 25.2017 165.226 25.6926 163.633 26.1426C162.081 26.6336 160.652 27.7791 159.427 29.6201C158.202 31.4611 157.549 33.5476 157.508 35.8796C157.426 38.2116 157.181 39.5617 156.773 39.9299C156.364 40.2981 155.874 40.5026 155.343 40.5026C154.731 40.5026 154.445 39.7253 154.445 38.1298C154.445 36.9842 154.486 35.8796 154.608 34.8568C154.731 33.7931 154.772 32.7703 154.772 31.7884C154.772 28.9655 154.649 26.9199 154.363 25.6108C154.077 24.3016 153.914 23.4424 153.914 22.9924Z" fill="white"/>
<path d="M175.843 1.3501C175.966 0.818247 176.088 0.327306 176.129 0.286395C176.17 0.245483 176.292 0.204571 176.415 0.163659C176.497 0.122748 176.66 0.0818358 176.742 0.0818358C176.823 0.0409241 176.946 0.0409241 177.027 0.0409241C177.109 0.0409241 177.232 0.0409241 177.313 0.0409241C177.395 0.0409241 177.517 0.0818358 177.599 0.0818358C177.681 0.122748 177.803 0.163659 177.844 0.204571C177.885 0.245483 178.008 0.327306 178.048 0.368218C178.089 0.40913 178.171 0.531865 178.212 0.572777C178.253 0.6546 178.293 0.736424 178.293 0.777335C178.293 0.818247 178.293 0.940982 178.293 1.02281C178.293 1.10463 178.293 1.26828 178.253 1.39101C178.253 1.51375 178.212 1.71831 178.171 1.84104C178.13 1.96378 177.967 2.61836 177.763 3.23204C177.558 3.88663 177.272 4.8276 177.15 5.35945C176.987 5.8913 176.823 6.5868 176.701 6.95501C176.619 7.32321 176.497 7.89598 176.415 8.26418C176.333 8.63239 176.211 9.32789 176.088 9.77792C175.966 10.2689 175.884 10.8416 175.843 11.0871C175.802 11.3326 175.721 11.7417 175.68 12.069C175.639 12.3963 175.476 13.0099 175.353 13.46C175.231 13.91 175.026 14.8101 174.863 15.4237C174.7 16.0783 174.455 17.0602 174.291 17.5921C174.128 18.1648 173.883 19.1467 173.679 19.8013C173.515 20.4559 173.311 21.1514 173.23 21.3969C173.148 21.6423 173.107 21.8878 173.107 21.9696C173.107 22.0514 173.107 22.1333 173.107 22.1742C173.107 22.2151 173.107 22.256 173.107 22.256C173.107 22.256 173.27 22.1742 173.475 22.0105C173.679 21.8469 174.251 21.3559 174.781 20.9059C175.271 20.4559 175.925 19.8831 176.17 19.5967C176.415 19.3513 176.742 19.0649 176.864 18.9831C176.987 18.9012 177.232 18.7376 177.354 18.6558C177.477 18.5739 177.803 18.4103 178.048 18.2876C178.293 18.2057 178.702 18.0421 178.947 17.9603C179.192 17.8784 179.641 17.7557 180.009 17.633C180.335 17.5511 180.866 17.4284 181.193 17.3466C181.52 17.2648 181.846 17.2239 181.969 17.1829C182.091 17.1829 182.295 17.1829 182.377 17.2239C182.5 17.2648 182.622 17.3057 182.704 17.3466C182.785 17.3875 182.867 17.5102 182.908 17.5921C182.949 17.6739 182.99 17.8375 183.03 17.9603C183.03 18.083 183.03 18.2876 183.03 18.4512C183.03 18.6149 182.99 18.7785 182.949 18.8603C182.908 18.9422 182.826 19.0649 182.785 19.1058C182.745 19.1467 182.622 19.2694 182.5 19.3922C182.377 19.5149 182.01 19.6786 181.642 19.7604C181.274 19.8831 180.703 20.0877 180.335 20.2104C179.968 20.3331 179.396 20.6195 179.069 20.7832C178.702 20.9468 178.008 21.3969 177.517 21.7651C176.987 22.1333 176.374 22.6242 176.129 22.8697C175.884 23.1151 175.394 23.647 175.067 24.097C174.7 24.5471 174.332 25.1607 174.21 25.4471C174.087 25.7744 173.924 26.3472 173.801 26.7563C173.679 27.1654 173.556 27.7382 173.515 28.0246C173.475 28.3109 173.475 28.8428 173.597 29.211C173.679 29.5792 174.006 30.4384 174.291 31.0929C174.577 31.7475 175.026 32.4839 175.19 32.7294C175.394 32.9749 175.966 33.4658 176.415 33.834C176.905 34.2022 177.64 34.7341 178.089 35.0205C178.538 35.3068 179.273 35.7569 179.723 36.0023C180.172 36.2478 180.784 36.616 181.152 36.8206C181.479 37.0251 181.887 37.2706 182.05 37.4343C182.214 37.557 182.418 37.7616 182.54 37.8434C182.663 37.9252 182.745 38.1298 182.785 38.2525C182.785 38.3752 182.785 38.5798 182.745 38.6616C182.704 38.7434 182.622 38.8662 182.54 38.948C182.459 39.0298 182.295 39.1526 182.173 39.2344C182.05 39.3162 181.765 39.3571 181.52 39.3571C181.274 39.3162 180.825 39.1935 180.458 39.0298C180.131 38.8662 179.273 38.498 178.538 38.2116C177.844 37.9252 176.823 37.3524 176.292 36.9842C175.762 36.616 175.026 36.0433 174.7 35.716C174.332 35.3887 173.638 34.6113 173.148 34.0386C172.658 33.4249 172.045 32.6476 171.8 32.3203C171.555 31.9521 171.269 31.5839 171.147 31.4611C171.024 31.3384 170.861 31.2566 170.779 31.2566C170.698 31.2566 170.575 31.3793 170.534 31.5021C170.494 31.6248 170.412 31.993 170.33 32.3203C170.249 32.6476 170.085 33.3022 169.963 33.7931C169.84 34.2841 169.718 34.9796 169.636 35.3068C169.554 35.6341 169.432 36.2069 169.391 36.5751C169.35 36.9433 169.268 37.4752 169.268 37.7616C169.268 38.0479 169.268 38.4571 169.268 38.6616C169.268 38.8662 169.228 39.1935 169.187 39.398C169.146 39.6026 169.023 39.848 168.901 39.9708C168.778 40.0526 168.574 40.1753 168.411 40.2163C168.248 40.2572 168.003 40.2981 167.839 40.2981C167.676 40.2981 167.472 40.2163 167.39 40.1344C167.267 40.0526 167.104 39.7662 166.982 39.4798C166.859 39.1935 166.777 38.6616 166.818 38.2525C166.859 37.8434 167.022 36.6978 167.267 35.6751C167.472 34.6523 168.043 32.2794 168.533 30.4384C169.023 28.5564 169.84 25.3653 170.371 23.3197C170.902 21.2741 171.678 18.1648 172.127 16.4465C172.576 14.6873 173.27 11.9462 173.638 10.2689C174.046 8.63239 174.618 6.09586 174.904 4.70486C175.394 3.51842 175.721 1.88195 175.843 1.3501Z" fill="white"/>
<path d="M58.7641 38.7025C58.5191 38.2525 58.3557 36.5751 58.3557 33.6704C58.3557 30.2747 58.4374 27.9018 58.5599 26.5926C58.6824 25.2425 58.8049 24.0152 58.9683 22.8697C59.0908 21.7241 59.6625 21.1514 60.6426 21.1514C61.4593 21.1514 61.9902 21.5605 62.2352 22.4196C61.9494 25.2835 61.7452 27.6154 61.6635 29.3746C61.541 31.1338 61.5002 32.5248 61.5002 33.5476C61.7452 33.5476 62.2761 32.443 63.0928 30.2338C64.6854 27.2472 66.3597 25.7744 68.1565 25.7744C69.7083 25.7744 70.8518 26.3881 71.6277 27.5745C72.4036 28.761 72.8119 30.7247 72.9753 33.4249C72.9753 34.9795 72.8936 36.5342 72.6894 38.0479C72.5261 39.5616 72.1586 40.3799 71.7094 40.5026C71.056 40.5026 70.6884 40.0935 70.6068 39.2753C70.6068 38.6207 70.6068 37.7615 70.5659 36.6978C70.5251 35.6341 70.4434 34.1204 70.2801 32.1566C70.1167 30.1929 69.3817 29.1292 68.1157 28.9655C67.054 28.9655 65.788 30.7247 64.3996 34.2022C63.0111 37.6797 61.4593 39.4389 59.8258 39.4389C59.3358 39.398 59.0091 39.1525 58.7641 38.7025Z" fill="white"/>
<path d="M84.0012 28.8428C86.3697 27.3699 87.5948 25.938 87.6357 24.547C87.6357 23.6879 87.2273 23.2788 86.3697 23.2788C84.6546 23.2788 83.0619 24.097 81.5918 25.7744C80.1217 27.4109 79.3866 29.7019 79.3866 32.6066C79.3866 34.2022 79.9175 35.5114 81.0201 36.5342C82.1227 37.557 83.4703 38.0888 85.1855 38.0888C87.6357 37.9252 89.8 37.1888 91.7602 35.8387C92.3319 35.3477 92.6586 35.1432 92.7403 35.1432C92.8219 35.1432 92.9036 35.225 92.9036 35.4296C92.9036 35.5932 92.6177 36.0841 92.046 36.8615C91.4743 37.6388 90.4942 38.457 89.1466 39.3162C87.7582 40.1344 86.0022 40.5844 83.8787 40.5844C81.8777 40.5844 80.1217 39.9708 78.6924 38.7025C77.2631 37.4342 76.4464 35.5114 76.2422 32.9339C76.2422 29.4155 77.2631 26.6335 79.2641 24.6289C81.2651 22.6242 83.8378 21.6423 86.9414 21.6423C87.9623 21.6423 88.8199 21.8878 89.4733 22.3787C90.1267 22.8697 90.4942 23.6061 90.4942 24.5879C90.3309 26.1835 89.5142 27.6154 88.044 28.8837C86.5739 30.1519 84.7362 31.1747 82.5311 31.8702C81.1834 32.2384 80.285 32.4021 79.9175 32.4021C79.6725 32.4021 79.5908 32.3203 79.5908 32.1975C79.5908 32.1157 79.6316 31.993 79.7542 31.8293C80.1625 31.2566 81.5918 30.2747 84.0012 28.8428Z" fill="white"/>
<path d="M14.9871 7.07771C14.9871 6.83224 14.7421 6.75042 14.252 6.75042C13.1495 6.75042 11.1076 8.50962 8.08569 12.028C5.1046 15.5055 3.51197 19.5149 3.34862 23.9743C3.34862 27.6154 4.20619 30.602 5.8805 33.0158C7.59565 35.4296 9.96418 36.6569 13.0678 36.6569C15.2321 36.6569 17.6415 35.9614 20.2959 34.5704C22.9503 33.1794 24.5021 32.4839 24.9105 32.4839C25.033 32.4839 25.0738 32.5248 25.0738 32.6066C25.0738 32.893 23.767 34.1613 21.1535 36.4114C18.5399 38.6616 15.518 39.8071 12.0469 39.8071C8.57573 39.7253 5.67632 38.2934 3.38946 35.5114C1.14343 32.7294 0 29.0882 0 24.5879C0.285858 18.4512 2.40937 13.3781 6.37054 9.40968C10.3317 5.40033 13.4761 3.43657 15.7222 3.43657C16.1305 3.43657 16.6206 3.60022 17.274 3.92751C17.9274 4.2548 18.2132 5.2776 18.2132 6.95498C18.2132 8.38689 17.8457 10.3507 17.0698 12.8463C16.2939 15.3828 15.763 16.6511 15.4363 16.6511C15.1913 16.6511 15.0688 15.751 15.0688 13.9509C15.0688 10.2688 15.0279 7.97777 14.9871 7.07771Z" fill="#EB883D"/>
<path d="M29.4842 3.88659C31.8935 3.76385 34.3846 3.68203 37.039 3.6002C38.4683 3.6002 40.4284 3.64112 42.9603 3.76385C45.4514 3.84567 46.7173 4.623 46.7173 6.014C46.5948 8.1005 45.2472 10.3097 42.6336 12.6417C40.0201 14.9737 38.7133 16.4056 38.7133 16.9374C38.9583 17.7966 40.796 19.7194 44.2263 22.6651C47.6566 25.6107 49.5351 28.6382 49.8617 31.6657C49.8617 34.6931 48.6775 36.9433 46.2681 38.3343C43.8587 39.7662 40.6735 40.4617 36.7123 40.4617C32.5061 40.3389 29.9334 39.7662 28.9125 38.6207C27.8507 37.5569 27.3607 34.4886 27.3607 29.5792C27.3607 27.6154 27.5648 23.8515 27.9324 18.2466C28.3407 12.6417 29.1166 9.73697 30.3009 9.53241C31.4443 9.53241 32.0161 10.187 32.0161 11.4553C31.9344 13.1326 31.6894 15.0964 31.2402 17.3875C30.7909 19.6785 30.4643 22.0514 30.2601 24.4652C30.0559 26.879 29.9742 29.3337 29.9742 31.7475C29.9742 34.2022 30.2192 35.8387 30.7501 36.6978C31.281 37.5569 33.0778 38.007 36.2222 38.0888C38.7133 38.0888 41.041 37.516 43.2462 36.3705C45.4514 35.225 46.554 33.6294 46.554 31.5838C46.3906 29.9065 44.4304 27.4108 40.7143 24.1379C36.9981 20.824 35.1605 18.4921 35.1605 17.1011C35.2013 15.6283 36.4673 13.7872 38.9583 11.6189C41.4494 9.45058 42.6745 8.01867 42.6745 7.32317C42.6745 6.79132 41.4494 6.50494 38.9583 6.46403C36.8756 6.46403 34.7113 6.62767 32.4653 6.91406C30.2192 7.20044 28.7083 7.36408 27.9324 7.36408C26.5439 7.36408 25.768 6.91406 25.6455 6.05491C25.8089 4.70482 27.0748 4.00932 29.4842 3.88659Z" fill="#EB883D"/>
<path d="M183.071 49.5032H0V50.5669H183.071V49.5032Z" fill="white"/>
<path d="M1.02092 66.6452H0L3.96117 56.7855H4.90042L8.86159 66.6452H7.84067L6.81975 64.0678H2.04184L1.02092 66.6452ZM2.36854 63.1678H6.41138L4.36954 57.9311L2.36854 63.1678Z" fill="white"/>
<path d="M11.0259 70H10.1274V60.1403H11.0259V61.2858H11.0667C11.3117 60.8767 11.6384 60.5494 12.0876 60.3039C12.496 60.0994 12.9452 59.9766 13.3536 59.9766C13.8436 59.9766 14.252 60.0584 14.6603 60.2221C15.0279 60.3857 15.3546 60.6312 15.6404 60.9585C15.9263 61.2449 16.1305 61.6131 16.2938 62.0631C16.4572 62.4722 16.5388 62.9223 16.5388 63.4132C16.5388 63.9041 16.4572 64.3542 16.2938 64.7633C16.1305 65.1724 15.9263 65.5406 15.6404 65.8679C15.3546 66.1952 15.0279 66.3998 14.6603 66.6043C14.2928 66.768 13.8436 66.8498 13.3536 66.8498C12.9043 66.8498 12.496 66.7271 12.0876 66.5225C11.6792 66.3179 11.3525 65.9906 11.0667 65.5815H11.0259V70ZM15.5587 63.4132C15.5587 63.045 15.5179 62.7177 15.3954 62.3904C15.2729 62.0631 15.1504 61.7767 14.9462 61.5722C14.742 61.3267 14.497 61.1631 14.2111 60.9994C13.9253 60.8767 13.5986 60.7949 13.231 60.7949C12.9043 60.7949 12.5777 60.8767 12.2918 60.9994C12.0059 61.1222 11.7609 61.3267 11.5567 61.5722C11.3525 61.8176 11.1892 62.104 11.0667 62.3904C10.9442 62.7177 10.9033 63.045 10.9033 63.4132C10.9033 63.7814 10.9442 64.1496 11.0667 64.436C11.1892 64.7633 11.3525 65.0497 11.5567 65.2542C11.7609 65.4997 12.0059 65.6634 12.2918 65.7861C12.5777 65.9088 12.9043 65.9906 13.231 65.9906C13.5986 65.9906 13.9253 65.9088 14.2111 65.7861C14.497 65.6634 14.742 65.4588 14.9462 65.2133C15.1504 64.9679 15.2729 64.6815 15.3954 64.3951C15.5179 64.1087 15.5587 63.7814 15.5587 63.4132Z" fill="white"/>
<path d="M18.3765 60.8767C18.3765 60.5903 18.3357 60.3448 18.3357 60.1403H19.1933C19.1933 60.3039 19.2341 60.5085 19.2341 60.713C19.2341 60.9176 19.2341 61.1222 19.2341 61.2449H19.2749C19.4383 60.8767 19.7241 60.5494 20.0508 60.3039C20.3775 60.0584 20.7859 59.9357 21.2351 59.9357C21.3576 59.9357 21.4393 59.9357 21.521 59.9357C21.6026 59.9357 21.7252 59.9766 21.8068 59.9766L21.6843 60.8767C21.6435 60.8358 21.5618 60.8358 21.4393 60.8358C21.3168 60.8358 21.1943 60.7949 21.0718 60.7949C20.8267 60.7949 20.6226 60.8358 20.3775 60.9176C20.1734 60.9994 19.9692 61.1631 19.8058 61.3676C19.6425 61.5722 19.52 61.8177 19.3975 62.1449C19.3158 62.4722 19.2341 62.8404 19.2341 63.2496V66.5634H18.3357V61.4904C18.4174 61.4085 18.3765 61.1631 18.3765 60.8767Z" fill="white"/>
<path d="M28.3816 63.2086C28.3816 63.2905 28.3816 63.3314 28.3816 63.4132C28.3816 63.495 28.3816 63.5768 28.3816 63.6587H23.3178C23.3178 63.986 23.3995 64.2723 23.4812 64.5587C23.6037 64.8451 23.767 65.0906 23.9712 65.2951C24.1754 65.4997 24.4204 65.6633 24.6655 65.7861C24.9513 65.9088 25.2372 65.9906 25.523 65.9906C25.9722 65.9906 26.3806 65.8679 26.7073 65.6633C27.034 65.4179 27.279 65.1724 27.4832 64.886L28.1774 65.4588C27.8099 65.9497 27.4015 66.3179 26.9932 66.5225C26.544 66.7271 26.0947 66.8498 25.5639 66.8498C25.1147 66.8498 24.7063 66.768 24.2979 66.6043C23.9304 66.4407 23.5629 66.1952 23.3178 65.9088C23.032 65.5815 22.8278 65.2542 22.6645 64.8042C22.5011 64.3951 22.4194 63.9451 22.4194 63.4541C22.4194 62.9632 22.5011 62.5131 22.6645 62.104C22.8278 61.6949 23.032 61.3267 23.3178 60.9994C23.6037 60.6721 23.9304 60.4675 24.2979 60.263C24.6655 60.0993 25.0738 60.0175 25.523 60.0175C26.0131 60.0175 26.4214 60.0993 26.789 60.263C27.1565 60.4266 27.4424 60.6721 27.6874 60.9585C27.9324 61.2449 28.0958 61.5722 28.2591 61.9813C28.3408 62.3495 28.3816 62.7586 28.3816 63.2086ZM27.4832 62.8813C27.4424 62.2677 27.279 61.7767 26.9523 61.3676C26.6256 60.9585 26.1356 60.7539 25.4822 60.7539C25.1963 60.7539 24.9105 60.7948 24.6655 60.9176C24.4204 61.0403 24.1754 61.204 24.0121 61.4085C23.8079 61.6131 23.6854 61.8176 23.5629 62.104C23.4404 62.3495 23.3995 62.6359 23.3587 62.9223H27.4832V62.8813Z" fill="white"/>
<path d="M31.0768 60.1403C31.0768 60.3039 31.1176 60.5085 31.1176 60.713C31.1176 60.9176 31.1176 61.1222 31.1176 61.2449H31.1585C31.3218 60.8767 31.6077 60.5494 32.0161 60.3039C32.4244 60.0584 32.8328 59.9357 33.2412 59.9357C34.0171 59.9357 34.5888 60.1812 34.9971 60.6721C35.3647 61.1631 35.5689 61.8177 35.5689 62.6359V66.6452H34.6705V63.045C34.6705 62.7177 34.6296 62.3904 34.5888 62.104C34.5479 61.8177 34.4663 61.5722 34.3029 61.3676C34.1804 61.1631 34.0171 60.9994 33.8129 60.9176C33.6087 60.7949 33.3228 60.7539 32.9961 60.7539C32.7511 60.7539 32.5469 60.7949 32.3019 60.9176C32.0977 61.0403 31.8935 61.1631 31.7302 61.3676C31.5669 61.5722 31.4035 61.8586 31.3218 62.1449C31.1993 62.4722 31.1585 62.8404 31.1585 63.2905V66.6452H30.2601V61.5722C30.2601 61.4085 30.2601 61.1631 30.2601 60.8767C30.2601 60.5903 30.2601 60.3448 30.2192 60.1403H31.0768Z" fill="white"/>
<path d="M42.8379 65.5406C42.5928 65.9497 42.2253 66.277 41.8169 66.4816C41.4086 66.6862 40.9594 66.8089 40.551 66.8089C40.061 66.8089 39.6526 66.7271 39.2442 66.5634C38.8767 66.3998 38.55 66.1543 38.2641 65.827C37.9783 65.4997 37.7741 65.1724 37.6107 64.7224C37.4474 64.3133 37.3657 63.8632 37.3657 63.3723C37.3657 62.8814 37.4474 62.4313 37.6107 62.0222C37.7741 61.6131 37.9783 61.2449 38.2641 60.9176C38.55 60.5903 38.8767 60.3857 39.2442 60.1812C39.6117 60.0175 40.061 59.9357 40.551 59.9357C41.0002 59.9357 41.4086 60.0584 41.8169 60.263C42.2253 60.4676 42.552 60.7949 42.8379 61.2449H42.8787V56.09H43.7771V66.6043H42.8787L42.8379 65.5406ZM38.3458 63.4132C38.3458 63.7814 38.3866 64.1087 38.5092 64.436C38.6317 64.7633 38.7542 65.0497 38.9584 65.2542C39.1625 65.4997 39.4076 65.6634 39.6934 65.827C39.9793 65.9497 40.306 66.0316 40.6735 66.0316C41.0002 66.0316 41.3269 65.9497 41.6128 65.827C41.8986 65.7043 42.1436 65.4997 42.3478 65.2952C42.552 65.0497 42.7153 64.8042 42.8379 64.4769C42.9604 64.1496 43.0012 63.8223 43.0012 63.4541C43.0012 63.0859 42.9604 62.7177 42.8379 62.4313C42.7153 62.104 42.552 61.8177 42.3478 61.6131C42.1436 61.3676 41.8986 61.204 41.6128 61.0403C41.3269 60.9176 41.0002 60.8358 40.6735 60.8358C40.306 60.8358 39.9793 60.9176 39.6934 61.0403C39.4076 61.1631 39.1625 61.3676 38.9584 61.6131C38.7542 61.8586 38.6317 62.1449 38.5092 62.4313C38.3866 62.7177 38.3458 63.045 38.3458 63.4132Z" fill="white"/>
<path d="M47.2073 57.6446C47.2073 57.8492 47.1257 58.0129 47.0032 58.1356C46.8807 58.2583 46.7173 58.3401 46.5948 58.3401C46.4314 58.3401 46.3089 58.2583 46.1456 58.1356C46.0231 58.0129 45.9414 57.8492 45.9414 57.6446C45.9414 57.4401 46.0231 57.2764 46.1456 57.1537C46.2681 57.031 46.4314 56.9491 46.5948 56.9491C46.7581 56.9491 46.8807 57.031 47.0032 57.1537C47.1257 57.2764 47.2073 57.4401 47.2073 57.6446ZM47.0032 66.6452H46.1456V60.1403H47.044V66.6452H47.0032Z" fill="white"/>
<path d="M53.4144 60.7949L49.78 65.827H53.537V66.6452H48.5957V65.9907L52.2302 60.9585H48.7999V60.1403H53.4144V60.7949Z" fill="white"/>
<path d="M58.9684 62.4313C58.9684 61.8585 58.8459 61.4494 58.56 61.163C58.2742 60.8767 57.8658 60.7539 57.3349 60.7539C56.9674 60.7539 56.6407 60.8358 56.314 60.9585C55.9873 61.0812 55.7423 61.2858 55.5381 61.5313L55.0481 60.9176C55.2931 60.6312 55.6198 60.4266 56.0282 60.263C56.4365 60.0993 56.8857 60.0175 57.4166 60.0175C57.7433 60.0175 58.07 60.0584 58.3559 60.1812C58.6417 60.263 58.8867 60.4266 59.0909 60.6312C59.2951 60.8358 59.4585 61.0812 59.581 61.3676C59.7035 61.654 59.7443 62.0222 59.7443 62.4313V65.2951C59.7443 65.5406 59.7443 65.7861 59.7852 66.0725C59.7852 66.3588 59.826 66.5634 59.8668 66.768H59.0909C59.0501 66.6043 59.0501 66.4407 59.0093 66.2361C59.0093 66.0315 58.9684 65.8679 58.9684 65.7043H58.9276C58.6417 66.1543 58.3559 66.4407 57.9883 66.6452C57.6208 66.8498 57.2124 66.9316 56.7224 66.9316C56.4774 66.9316 56.2324 66.8907 55.9873 66.8089C55.7423 66.727 55.4973 66.6452 55.2931 66.4816C55.0889 66.3179 54.9256 66.1134 54.8031 65.8679C54.6806 65.6224 54.5989 65.2951 54.5989 64.9269C54.5989 64.436 54.7214 64.0269 54.9664 63.7405C55.2114 63.4541 55.5381 63.2495 55.9057 63.0859C56.314 62.9223 56.7632 62.8404 57.2941 62.7995C57.825 62.7586 58.3559 62.7177 58.8867 62.7177V62.4313H58.9684ZM58.6826 63.4132C58.315 63.4132 57.9475 63.4132 57.58 63.4541C57.2124 63.495 56.8857 63.5359 56.559 63.6587C56.2732 63.7405 56.0282 63.9041 55.824 64.0678C55.6198 64.2723 55.5381 64.5178 55.5381 64.8042C55.5381 65.0497 55.579 65.2133 55.6606 65.377C55.7423 65.5406 55.8648 65.6633 55.9873 65.7452C56.1098 65.827 56.2732 65.9088 56.4365 65.9497C56.5999 65.9906 56.7632 66.0315 56.9674 66.0315C57.2941 66.0315 57.5391 65.9906 57.7841 65.8679C58.0292 65.7452 58.2334 65.5815 58.3967 65.377C58.56 65.1724 58.6826 64.9269 58.7642 64.6815C58.8459 64.436 58.8867 64.1496 58.8867 63.8632V63.4132H58.6826Z" fill="white"/>
<path d="M60.6835 69.0999C60.7652 69.1408 60.8469 69.1408 60.9694 69.1818C61.0511 69.1818 61.1736 69.2227 61.2553 69.2227C61.4186 69.2227 61.582 69.1818 61.7045 69.0999C61.827 69.0181 61.9086 68.9363 61.9495 68.8136C62.0312 68.6908 62.072 68.5272 62.072 68.3635C62.1128 68.1999 62.1128 67.9953 62.1128 67.7908V60.1403H63.0112V67.9544C63.0112 68.1999 62.9704 68.4863 62.9296 68.7317C62.8887 68.9772 62.8071 69.1818 62.6437 69.3863C62.5212 69.5909 62.3579 69.7136 62.1128 69.8363C61.9087 69.9591 61.6228 70 61.2553 70C61.1736 70 61.0511 70 60.9286 69.9591C60.8061 69.9591 60.6835 69.9182 60.561 69.8773L60.6835 69.0999ZM63.1746 57.6446C63.1746 57.8492 63.0929 58.0129 62.9704 58.1356C62.8479 58.2583 62.6846 58.3401 62.5212 58.3401C62.3579 58.3401 62.2353 58.2583 62.072 58.1356C61.9495 58.0129 61.8678 57.8492 61.8678 57.6446C61.8678 57.4401 61.9495 57.2764 62.072 57.1537C62.1945 57.031 62.3579 56.9491 62.5212 56.9491C62.6846 56.9491 62.8071 57.031 62.9704 57.1537C63.0929 57.2764 63.1746 57.4401 63.1746 57.6446Z" fill="white"/>
<path d="M70.852 63.2086C70.852 63.2905 70.852 63.3314 70.852 63.4132C70.852 63.495 70.852 63.5768 70.852 63.6587H65.7882C65.7882 63.986 65.8699 64.2723 65.9515 64.5587C66.074 64.8451 66.2374 65.0906 66.4007 65.2951C66.6049 65.4997 66.8499 65.6633 67.095 65.7861C67.3808 65.9088 67.6667 65.9906 67.9525 65.9906C68.4017 65.9906 68.8101 65.8679 69.1368 65.6633C69.4635 65.4179 69.7085 65.1724 69.9127 64.886L70.5661 65.4588C70.1986 65.9497 69.7902 66.3179 69.3818 66.5225C68.9326 66.7271 68.4834 66.8498 67.9525 66.8498C67.5033 66.8498 67.095 66.768 66.6866 66.6043C66.3191 66.4407 65.9515 66.1952 65.7065 65.9088C65.4207 65.5815 65.2165 65.2542 65.0531 64.8042C64.8898 64.3951 64.8081 63.9451 64.8081 63.4541C64.8081 62.9632 64.8898 62.5131 65.0531 62.104C65.2165 61.6949 65.4207 61.3267 65.7065 60.9994C65.9924 60.6721 66.3191 60.4675 66.6866 60.263C67.0541 60.0993 67.4625 60.0175 67.9117 60.0175C68.4017 60.0175 68.8101 60.0993 69.1776 60.263C69.5452 60.4266 69.831 60.6721 70.0761 60.9585C70.3211 61.2449 70.4844 61.5722 70.6478 61.9813C70.8111 62.3495 70.852 62.7586 70.852 63.2086ZM69.9535 62.8813C69.9127 62.2677 69.7494 61.7767 69.3818 61.3676C69.0551 60.9585 68.5651 60.7539 67.9117 60.7539C67.6258 60.7539 67.34 60.7948 67.095 60.9176C66.8499 61.0403 66.6049 61.204 66.4416 61.4085C66.2374 61.6131 66.1149 61.8176 65.9924 62.104C65.8699 62.3495 65.829 62.6359 65.7882 62.9223H69.9535V62.8813Z" fill="white"/>
<path d="M75.9974 61.6949C75.8748 61.4085 75.6707 61.204 75.4256 61.0403C75.1806 60.8767 74.8539 60.7949 74.5272 60.7949C74.3639 60.7949 74.2005 60.7949 74.078 60.8358C73.9147 60.8767 73.7922 60.9176 73.6697 60.9994C73.5471 61.0812 73.4655 61.204 73.3838 61.3267C73.3021 61.4494 73.2613 61.6131 73.2613 61.7767C73.2613 62.0631 73.3838 62.3086 73.6288 62.4722C73.8738 62.6359 74.2414 62.7586 74.7314 62.8814C75.4665 63.045 75.9973 63.2496 76.324 63.5769C76.6507 63.8632 76.8549 64.2724 76.8549 64.8042C76.8549 65.1724 76.7732 65.4997 76.6507 65.7452C76.5282 65.9906 76.324 66.1952 76.1199 66.3589C75.9157 66.5225 75.6707 66.6452 75.3848 66.6861C75.0989 66.768 74.8539 66.8089 74.5681 66.8089C74.1189 66.8089 73.6697 66.7271 73.2204 66.5225C72.7712 66.3179 72.4445 65.9906 72.1587 65.5815L72.8529 65.0088C73.0163 65.2951 73.2205 65.5406 73.5471 65.7452C73.833 65.9497 74.2005 66.0316 74.5681 66.0316C74.7722 66.0316 74.9356 66.0316 75.0989 65.9906C75.2623 65.9497 75.4256 65.8679 75.5481 65.7861C75.6707 65.7043 75.7932 65.5815 75.8748 65.4179C75.9565 65.2542 75.9974 65.0906 75.9974 64.886C75.9974 64.5587 75.834 64.2724 75.5481 64.1087C75.2215 63.9451 74.8131 63.7814 74.2005 63.6178C74.0372 63.5769 73.833 63.495 73.6288 63.4541C73.4246 63.3723 73.2204 63.2905 73.0571 63.1268C72.8938 63.0041 72.7304 62.8404 72.6487 62.6359C72.5262 62.4313 72.4854 62.1859 72.4854 61.8586C72.4854 61.5313 72.5262 61.2449 72.6487 60.9994C72.7712 60.7539 72.9346 60.5494 73.1388 60.4266C73.343 60.263 73.588 60.1403 73.833 60.0994C74.078 60.0175 74.3639 59.9766 74.6497 59.9766C75.0581 59.9766 75.4665 60.0994 75.8748 60.3039C76.2832 60.5085 76.5691 60.7949 76.7732 61.1631L75.9974 61.6949Z" fill="white"/>
<path d="M87.3499 63.2086C87.3499 63.2905 87.3499 63.3314 87.3499 63.4132C87.3499 63.495 87.3499 63.5768 87.3499 63.6587H82.3269C82.3269 63.986 82.4086 64.2723 82.4903 64.5587C82.6128 64.8451 82.7761 65.0906 82.9395 65.2951C83.1437 65.4997 83.3887 65.6633 83.6337 65.7861C83.9196 65.9088 84.2054 65.9906 84.4913 65.9906C84.9405 65.9906 85.3489 65.8679 85.6756 65.6633C86.0023 65.4179 86.2473 65.1724 86.4515 64.886L87.1049 65.4588C86.7373 65.9497 86.3289 66.3179 85.9206 66.5225C85.4714 66.7271 85.0222 66.8498 84.5321 66.8498C84.0829 66.8498 83.6746 66.768 83.2662 66.6043C82.8987 66.4407 82.5311 66.1952 82.2861 65.9088C82.0002 65.5815 81.7961 65.2542 81.6327 64.8042C81.4694 64.3951 81.3877 63.9451 81.3877 63.4541C81.3877 62.9632 81.4694 62.5131 81.6327 62.104C81.7961 61.6949 82.0002 61.3267 82.2861 60.9994C82.572 60.6721 82.8987 60.4675 83.2662 60.263C83.6337 60.0993 84.0421 60.0175 84.4913 60.0175C84.9813 60.0175 85.3897 60.0993 85.7572 60.263C86.1248 60.4266 86.4106 60.6721 86.6556 60.9585C86.9007 61.2449 87.064 61.5722 87.2274 61.9813C87.2682 62.3495 87.3499 62.7586 87.3499 63.2086ZM86.4515 62.8813C86.4106 62.2677 86.2473 61.7767 85.8797 61.3676C85.5531 60.9585 85.063 60.7539 84.4096 60.7539C84.1238 60.7539 83.8379 60.7948 83.5929 60.9176C83.3479 61.0403 83.1028 61.204 82.9395 61.4085C82.7353 61.6131 82.6128 61.8176 82.4903 62.104C82.3678 62.3495 82.3269 62.6359 82.2861 62.9223H86.4515V62.8813Z" fill="white"/>
<path d="M90.0044 60.1403C90.0044 60.3039 90.0452 60.5085 90.0452 60.713C90.0452 60.9176 90.0452 61.1222 90.0452 61.2449H90.086C90.2494 60.8767 90.5352 60.5494 90.9436 60.3039C91.352 60.0584 91.7604 59.9357 92.1687 59.9357C92.9446 59.9357 93.5163 60.1812 93.8839 60.6721C94.2514 61.1631 94.4556 61.8177 94.4556 62.6359V66.6452H93.5572V63.045C93.5572 62.7177 93.5163 62.3904 93.4755 62.104C93.4347 61.8177 93.353 61.5722 93.2305 61.3676C93.108 61.1631 92.9446 60.9994 92.7404 60.9176C92.5363 60.7949 92.2504 60.7539 91.9237 60.7539C91.6787 60.7539 91.4745 60.7949 91.2295 60.9176C91.0253 61.0403 90.8211 61.1631 90.6169 61.3676C90.4536 61.5722 90.2902 61.8586 90.2086 62.1449C90.086 62.4722 90.0452 62.8404 90.0452 63.2905V66.6452H89.1468V61.5722C89.1468 61.4085 89.1468 61.1631 89.1468 60.8767C89.1468 60.5903 89.106 60.3448 89.106 60.1403H90.0044Z" fill="white"/>
<path d="M107.85 65.0497C107.687 65.2951 107.523 65.5406 107.278 65.7452C107.074 65.9497 106.788 66.1543 106.502 66.3179C106.217 66.4816 105.89 66.6043 105.522 66.727C105.155 66.8089 104.787 66.8907 104.379 66.8907C103.685 66.8907 103.031 66.768 102.46 66.4816C101.888 66.2361 101.357 65.8679 100.949 65.4179C100.54 64.9678 100.173 64.3951 99.9686 63.7814C99.7236 63.1677 99.6011 62.4722 99.6011 61.6949C99.6011 60.9585 99.7236 60.263 99.9686 59.6084C100.214 58.9947 100.54 58.422 100.99 57.9719C101.398 57.5219 101.929 57.1537 102.5 56.9082C103.072 56.6628 103.726 56.54 104.42 56.54C104.747 56.54 105.073 56.5809 105.4 56.6628C105.727 56.7446 106.012 56.8264 106.298 56.9901C106.584 57.1128 106.829 57.2764 107.074 57.481C107.319 57.6856 107.483 57.8901 107.646 58.1356L106.87 58.7493C106.788 58.5856 106.666 58.422 106.502 58.2583C106.339 58.0947 106.135 57.9719 105.931 57.8492C105.727 57.7265 105.482 57.6446 105.237 57.5628C104.992 57.481 104.706 57.4401 104.42 57.4401C103.807 57.4401 103.276 57.5628 102.827 57.7674C102.337 58.0128 101.97 58.2992 101.643 58.7083C101.316 59.1175 101.071 59.5675 100.908 60.0584C100.745 60.5903 100.663 61.1221 100.663 61.6949C100.663 62.2677 100.745 62.7995 100.949 63.3314C101.112 63.8632 101.398 64.3133 101.725 64.6815C102.051 65.0906 102.46 65.377 102.909 65.6224C103.399 65.8679 103.93 65.9497 104.501 65.9497C105.032 65.9497 105.522 65.827 106.012 65.6224C106.502 65.377 106.87 65.0088 107.197 64.5178L107.85 65.0497Z" fill="white"/>
<path d="M115.282 63.4132C115.282 63.9041 115.201 64.3542 115.037 64.7633C114.874 65.1724 114.67 65.5406 114.384 65.8679C114.098 66.1952 113.771 66.3998 113.363 66.5634C112.955 66.7271 112.505 66.8089 112.056 66.8089C111.607 66.8089 111.158 66.7271 110.749 66.5634C110.341 66.3998 110.014 66.1543 109.728 65.8679C109.443 65.5406 109.238 65.2133 109.075 64.7633C108.912 64.3542 108.83 63.9041 108.83 63.4132C108.83 62.9223 108.912 62.4722 109.075 62.0631C109.238 61.654 109.443 61.2858 109.728 60.9585C110.014 60.6312 110.341 60.4266 110.749 60.2221C111.158 60.0584 111.566 59.9766 112.056 59.9766C112.546 59.9766 112.955 60.0584 113.363 60.2221C113.771 60.3857 114.098 60.6312 114.384 60.9585C114.67 61.2449 114.874 61.6131 115.037 62.0631C115.201 62.4722 115.282 62.9223 115.282 63.4132ZM114.343 63.4132C114.343 63.045 114.302 62.7177 114.18 62.3904C114.057 62.0631 113.935 61.7767 113.73 61.5722C113.526 61.3267 113.281 61.1631 112.995 60.9994C112.71 60.8767 112.383 60.7949 112.015 60.7949C111.648 60.7949 111.321 60.8767 111.076 60.9994C110.79 61.1222 110.545 61.3267 110.341 61.5722C110.137 61.8176 109.974 62.104 109.892 62.3904C109.769 62.7177 109.728 63.045 109.728 63.4132C109.728 63.7814 109.769 64.1087 109.892 64.436C110.014 64.7633 110.137 65.0497 110.341 65.2542C110.545 65.4997 110.79 65.6634 111.076 65.827C111.362 65.9497 111.689 66.0316 112.015 66.0316C112.383 66.0316 112.71 65.9497 112.995 65.827C113.281 65.7043 113.526 65.4997 113.73 65.2542C113.935 65.0088 114.098 64.7224 114.18 64.436C114.302 64.1087 114.343 63.7814 114.343 63.4132Z" fill="white"/>
<path d="M118.876 60.3448C119.244 60.0994 119.652 59.9766 120.06 59.9766C120.224 59.9766 120.387 59.9766 120.591 60.0175C120.755 60.0584 120.959 60.1403 121.122 60.2221C121.285 60.3448 121.449 60.4676 121.571 60.6312C121.735 60.7949 121.857 61.0403 121.939 61.3267C122.143 60.8767 122.429 60.5494 122.796 60.3039C123.164 60.0584 123.572 59.9357 124.062 59.9357C124.838 59.9357 125.41 60.1812 125.818 60.6721C126.186 61.1631 126.39 61.8177 126.39 62.6359V66.6452H125.492V63.045C125.492 62.3495 125.369 61.8177 125.124 61.4085C124.879 60.9994 124.471 60.7949 123.899 60.7949C123.572 60.7949 123.327 60.8767 123.082 60.9994C122.878 61.1222 122.674 61.3267 122.551 61.5313C122.429 61.7767 122.306 62.0222 122.265 62.3086C122.225 62.595 122.184 62.8814 122.184 63.2087V66.6862H121.285V62.8814C121.285 62.5541 121.245 62.2677 121.204 62.0222C121.163 61.7767 121.081 61.5313 120.959 61.3676C120.836 61.204 120.714 61.0403 120.51 60.9585C120.305 60.8767 120.06 60.7949 119.774 60.7949C119.57 60.7949 119.366 60.8358 119.162 60.9585C118.958 61.0812 118.754 61.204 118.59 61.4085C118.427 61.6131 118.263 61.8995 118.182 62.1859C118.059 62.5132 118.018 62.8814 118.018 63.3314V66.6862H117.202V61.6131C117.202 61.4495 117.202 61.204 117.202 60.9176C117.202 60.6312 117.202 60.3857 117.161 60.1812H118.018C118.018 60.3448 118.059 60.5494 118.059 60.7539C118.059 60.9585 118.059 61.1631 118.059 61.2858H118.1C118.223 60.8767 118.509 60.5494 118.876 60.3448Z" fill="white"/>
<path d="M133.087 66.6452C133.087 66.4816 133.046 66.277 133.046 66.0725C133.046 65.8679 133.046 65.6634 133.046 65.5406H133.006C132.842 65.9088 132.556 66.2361 132.148 66.4816C131.74 66.7271 131.331 66.8498 130.923 66.8498C130.147 66.8498 129.575 66.6043 129.167 66.1134C128.799 65.6225 128.595 64.9679 128.595 64.1496V60.1403H129.494V63.7405C129.494 64.0678 129.534 64.3951 129.575 64.6815C129.616 64.9679 129.698 65.2133 129.861 65.4179C129.984 65.6224 130.147 65.7861 130.351 65.8679C130.555 65.9907 130.841 66.0316 131.168 66.0316C131.413 66.0316 131.617 65.9907 131.862 65.8679C132.066 65.7452 132.271 65.6224 132.434 65.4179C132.597 65.2133 132.761 64.9269 132.842 64.6406C132.965 64.3133 133.006 63.9451 133.006 63.495V60.1403H133.904V65.2133C133.904 65.377 133.904 65.6225 133.904 65.9088C133.904 66.1952 133.945 66.4407 133.945 66.6452H133.087Z" fill="white"/>
<path d="M137.008 60.1403C137.008 60.3039 137.048 60.5085 137.048 60.713C137.048 60.9176 137.048 61.1222 137.048 61.2449H137.089C137.253 60.8767 137.538 60.5494 137.947 60.3039C138.355 60.0584 138.764 59.9357 139.172 59.9357C139.948 59.9357 140.52 60.1812 140.887 60.6721C141.255 61.1631 141.459 61.8177 141.459 62.6359V66.6452H140.56V63.045C140.56 62.7177 140.52 62.3904 140.479 62.104C140.438 61.8177 140.356 61.5722 140.193 61.3676C140.07 61.1631 139.907 60.9994 139.703 60.9176C139.499 60.7949 139.213 60.7539 138.886 60.7539C138.641 60.7539 138.437 60.7949 138.192 60.9176C137.988 61.0403 137.783 61.1631 137.579 61.3676C137.416 61.5722 137.253 61.8586 137.171 62.1449C137.048 62.4722 137.008 62.8404 137.008 63.2905V66.6452H136.109V61.5722C136.109 61.4085 136.109 61.1631 136.109 60.8767C136.109 60.5903 136.109 60.3448 136.068 60.1403H137.008Z" fill="white"/>
<path d="M144.848 57.6446C144.848 57.8492 144.767 58.0129 144.644 58.1356C144.522 58.2583 144.358 58.3401 144.236 58.3401C144.072 58.3401 143.95 58.2583 143.786 58.1356C143.664 58.0129 143.582 57.8492 143.582 57.6446C143.582 57.4401 143.664 57.2764 143.786 57.1537C143.909 57.031 144.072 56.9491 144.236 56.9491C144.399 56.9491 144.522 57.031 144.644 57.1537C144.807 57.2764 144.848 57.4401 144.848 57.6446ZM144.685 66.6452H143.786V60.1403H144.685V66.6452Z" fill="white"/>
<path d="M151.423 61.6131C151.26 61.3676 151.055 61.1631 150.77 60.9994C150.484 60.8358 150.198 60.7539 149.871 60.7539C149.504 60.7539 149.177 60.8358 148.891 60.9585C148.605 61.0812 148.36 61.2858 148.156 61.5313C147.952 61.7767 147.789 62.0631 147.707 62.3495C147.584 62.6768 147.543 63.0041 147.543 63.3723C147.543 63.7405 147.584 64.0678 147.707 64.3951C147.829 64.7224 147.952 64.9679 148.156 65.2133C148.36 65.4588 148.605 65.6224 148.891 65.7861C149.177 65.9088 149.504 65.9907 149.871 65.9907C150.28 65.9907 150.606 65.9088 150.851 65.7452C151.137 65.5815 151.341 65.377 151.505 65.1315L152.158 65.6634C151.913 65.9906 151.586 66.277 151.219 66.4816C150.851 66.6861 150.402 66.768 149.871 66.768C149.381 66.768 148.932 66.6862 148.524 66.5225C148.115 66.3589 147.789 66.1134 147.503 65.827C147.217 65.4997 147.013 65.1724 146.849 64.7224C146.686 64.3133 146.604 63.8632 146.604 63.3723C146.604 62.8814 146.686 62.4313 146.849 62.0222C147.013 61.6131 147.217 61.2449 147.503 60.9176C147.789 60.5903 148.115 60.3857 148.524 60.1812C148.932 60.0175 149.381 59.9357 149.871 59.9357C150.28 59.9357 150.688 60.0175 151.096 60.2221C151.505 60.4267 151.872 60.713 152.117 61.0812L151.423 61.6131Z" fill="white"/>
<path d="M157.385 62.4313C157.385 61.8585 157.263 61.4494 156.977 61.163C156.691 60.8767 156.283 60.7539 155.752 60.7539C155.384 60.7539 155.057 60.8358 154.731 60.9585C154.404 61.0812 154.159 61.2858 153.955 61.5313L153.465 60.9176C153.71 60.6312 154.037 60.4266 154.445 60.263C154.853 60.0993 155.343 60.0175 155.833 60.0175C156.16 60.0175 156.487 60.0584 156.773 60.1812C157.058 60.263 157.304 60.4266 157.508 60.6312C157.712 60.8358 157.875 61.0812 157.998 61.3676C158.12 61.654 158.161 62.0222 158.161 62.4313V65.2951C158.161 65.5406 158.161 65.7861 158.202 66.0725C158.202 66.3588 158.243 66.5634 158.284 66.768H157.508C157.467 66.6043 157.467 66.4407 157.426 66.2361C157.426 66.0315 157.385 65.8679 157.385 65.7043H157.344C157.058 66.1543 156.773 66.4407 156.405 66.6452C156.038 66.8498 155.629 66.9316 155.139 66.9316C154.894 66.9316 154.649 66.8907 154.404 66.8089C154.159 66.727 153.914 66.6452 153.71 66.4816C153.506 66.3179 153.342 66.1134 153.22 65.8679C153.097 65.6224 153.016 65.2951 153.016 64.9269C153.016 64.436 153.138 64.0269 153.383 63.7405C153.628 63.4541 153.955 63.2495 154.322 63.0859C154.731 62.9223 155.18 62.8404 155.711 62.7995C156.242 62.7586 156.773 62.7177 157.304 62.7177V62.4313H157.385ZM157.099 63.4132C156.732 63.4132 156.364 63.4132 155.997 63.4541C155.629 63.495 155.302 63.5359 154.976 63.6587C154.69 63.7405 154.445 63.9041 154.241 64.0678C154.037 64.2723 153.955 64.5178 153.955 64.8042C153.955 65.0497 153.996 65.2133 154.077 65.377C154.159 65.5406 154.282 65.6633 154.404 65.7452C154.527 65.827 154.69 65.9088 154.853 65.9497C155.017 65.9906 155.18 66.0315 155.384 66.0315C155.711 66.0315 155.956 65.9906 156.201 65.8679C156.446 65.7452 156.65 65.5815 156.813 65.377C156.977 65.1724 157.099 64.9269 157.181 64.6815C157.263 64.436 157.304 64.1496 157.304 63.8632V63.4132H157.099Z" fill="white"/>
<path d="M164.858 61.6131C164.695 61.3676 164.491 61.1631 164.205 60.9994C163.919 60.8358 163.633 60.7539 163.306 60.7539C162.939 60.7539 162.612 60.8358 162.326 60.9585C162.041 61.0812 161.796 61.2858 161.591 61.5313C161.387 61.7767 161.224 62.0631 161.142 62.3495C161.02 62.6768 160.979 63.0041 160.979 63.3723C160.979 63.7405 161.02 64.0678 161.142 64.3951C161.265 64.7224 161.387 64.9679 161.591 65.2133C161.796 65.4588 162.041 65.6224 162.326 65.7861C162.612 65.9088 162.939 65.9907 163.306 65.9907C163.715 65.9907 164.042 65.9088 164.287 65.7452C164.572 65.5815 164.777 65.377 164.94 65.1315L165.593 65.6634C165.348 65.9906 165.022 66.277 164.654 66.4816C164.287 66.6861 163.837 66.768 163.306 66.768C162.816 66.768 162.367 66.6862 161.959 66.5225C161.551 66.3589 161.224 66.1134 160.938 65.827C160.652 65.4997 160.448 65.1724 160.285 64.7224C160.121 64.3133 160.04 63.8632 160.04 63.3723C160.04 62.8814 160.121 62.4313 160.285 62.0222C160.448 61.6131 160.652 61.2449 160.938 60.9176C161.224 60.5903 161.551 60.3857 161.959 60.1812C162.367 60.0175 162.816 59.9357 163.306 59.9357C163.715 59.9357 164.123 60.0175 164.532 60.2221C164.94 60.4267 165.307 60.713 165.553 61.0812L164.858 61.6131Z" fill="white"/>
<path d="M168.044 57.6446C168.044 57.8492 167.962 58.0129 167.839 58.1356C167.717 58.2583 167.554 58.3401 167.39 58.3401C167.227 58.3401 167.104 58.2583 166.941 58.1356C166.818 58.0129 166.737 57.8492 166.737 57.6446C166.737 57.4401 166.818 57.2764 166.941 57.1537C167.064 57.031 167.227 56.9491 167.39 56.9491C167.554 56.9491 167.676 57.031 167.839 57.1537C168.003 57.2764 168.044 57.4401 168.044 57.6446ZM167.88 66.6452H166.982V60.1403H167.88V66.6452Z" fill="white"/>
<path d="M176.293 63.4132C176.293 63.9042 176.211 64.3542 176.048 64.7633C175.884 65.1724 175.68 65.5406 175.394 65.8679C175.108 66.1952 174.782 66.3998 174.373 66.5634C173.965 66.7271 173.556 66.8089 173.066 66.8089C172.617 66.8089 172.168 66.7271 171.76 66.5634C171.351 66.3998 171.025 66.1543 170.739 65.8679C170.453 65.5406 170.249 65.2133 170.085 64.7633C169.922 64.3542 169.84 63.9042 169.84 63.4132C169.84 62.9223 169.922 62.4723 170.085 62.0631C170.249 61.654 170.453 61.2858 170.739 60.9585C171.025 60.6312 171.351 60.4267 171.76 60.2221C172.168 60.0585 172.576 59.9766 173.066 59.9766C173.556 59.9766 173.965 60.0585 174.373 60.2221C174.782 60.3858 175.108 60.6312 175.394 60.9585C175.68 61.2449 175.884 61.6131 176.048 62.0631C176.211 62.4723 176.293 62.9223 176.293 63.4132ZM175.353 63.4132C175.353 63.045 175.312 62.7177 175.19 62.3904C175.067 62.0631 174.945 61.7768 174.741 61.5722C174.537 61.3267 174.292 61.1631 174.006 60.9994C173.72 60.8767 173.393 60.7949 173.026 60.7949C172.658 60.7949 172.331 60.8767 172.086 60.9994C171.8 61.1222 171.555 61.3267 171.351 61.5722C171.147 61.8177 170.984 62.104 170.902 62.3904C170.78 62.7177 170.739 63.045 170.739 63.4132C170.739 63.7814 170.78 64.1087 170.902 64.436C171.025 64.7633 171.147 65.0497 171.351 65.2543C171.555 65.4997 171.8 65.6634 172.086 65.827C172.372 65.9497 172.699 66.0316 173.026 66.0316C173.393 66.0316 173.72 65.9497 174.006 65.827C174.292 65.7043 174.537 65.4997 174.741 65.2543C174.945 65.0088 175.108 64.7224 175.19 64.436C175.272 64.1087 175.353 63.7814 175.353 63.4132ZM173.271 58.7902H172.495L173.802 56.7855H174.986L173.271 58.7902Z" fill="white"/>
<path d="M178.947 60.1403C178.947 60.3039 178.988 60.5085 178.988 60.713C178.988 60.9176 178.988 61.1222 178.988 61.2449H179.029C179.192 60.8767 179.478 60.5494 179.886 60.3039C180.295 60.0584 180.703 59.9357 181.111 59.9357C181.887 59.9357 182.459 60.1812 182.826 60.6721C183.194 61.1631 183.398 61.8177 183.398 62.6359V66.6452H182.541V63.045C182.541 62.7177 182.5 62.3904 182.459 62.104C182.418 61.8177 182.336 61.5722 182.214 61.3676C182.091 61.1631 181.928 60.9994 181.724 60.9176C181.52 60.7949 181.234 60.7539 180.907 60.7539C180.662 60.7539 180.458 60.7949 180.213 60.9176C180.009 61.0403 179.804 61.1631 179.6 61.3676C179.437 61.5722 179.274 61.8586 179.192 62.1449C179.069 62.4722 179.029 62.8404 179.029 63.2905V66.6452H178.13V61.5722C178.13 61.4085 178.13 61.1631 178.13 60.8767C178.13 60.5903 178.089 60.3448 178.089 60.1403H178.947Z" fill="white"/>
<path d="M242.734 1.71829C242.326 1.7592 241.917 1.80012 241.509 1.88194C211.861 6.2595 190.83 33.384 194.261 62.6768C199.161 46.4757 209.86 30.1929 226.603 18.0421C210.228 31.7884 200.55 49.5441 197.242 66.5225C199.61 66.6043 202.02 66.4816 204.429 66.1134C229.789 62.3904 247.267 35.5523 243.469 6.21858C243.265 4.66394 243.02 3.19112 242.734 1.71829Z" fill="#A5C43D"/>
</svg>
